<svg width="160" height="43" viewBox="0 0 160 43" fill="none" xmlns="http://www.w3.org/2000/svg">
<g clip-path="url(#clip0_5106_3416)">
<path d="M153.247 1.57069C152.802 1.92607 152.216 2.40583 151.914 2.6546C151.629 2.90337 149.639 4.41373 147.506 6.03071C144.823 8.05638 143.561 9.10475 143.454 9.44236C143.294 9.88659 143.152 9.95766 141.642 10.242C140.735 10.4019 139.58 10.7217 139.065 10.9172L138.141 11.3081L137.856 10.9172C137.59 10.5263 137.554 10.5263 131.672 10.5263C125.309 10.5263 125.505 10.4907 125.274 11.4503C125.132 12.0544 125.025 12.0544 124.154 11.5391C122.928 10.8106 122.164 10.5973 119.267 10.1354C118.165 9.97543 117.596 9.97543 116.512 10.1354C113.456 10.6151 113.029 10.7395 111.039 11.7346C109.546 12.4631 108.87 12.9429 107.502 14.2933C106.933 14.8619 106.4 15.3239 106.311 15.3239C106.222 15.3239 106.062 15.1284 105.974 14.8797C105.671 14.0978 103.645 12.2499 102.401 11.6457C101.086 11.006 99.238 10.5263 98.0829 10.5263C97.6386 10.5263 96.6256 10.6862 95.8081 10.8994C94.9906 11.0949 94.1553 11.3081 93.942 11.3614C93.6221 11.4325 93.5333 11.3792 93.5333 11.0771C93.5333 10.8817 93.5155 10.6862 93.4977 10.6684C93.4622 10.6507 89.3213 10.5796 84.2919 10.5263C77.4853 10.4374 74.8373 10.3486 73.9487 10.1709C72.7224 9.92213 72.3314 9.95766 69.8078 10.4907C67.924 10.8994 65.1161 12.8362 64.4052 14.2045C64.1209 14.7553 63.5344 14.7198 63.3211 14.1512C63.2145 13.9024 62.7169 13.2805 62.2015 12.7652C60.8331 11.397 59.2691 10.7395 56.1413 10.2597C51.645 9.54898 46.9355 10.704 44.323 13.1383C43.7899 13.6536 43.2745 14.0801 43.2034 14.0801C43.0079 14.0801 43.0257 13.6358 43.3278 12.0722C43.47 11.3081 43.5944 10.6329 43.5944 10.5973C43.5944 10.5618 44.2164 10.5263 44.9806 10.5263C45.8158 10.5263 46.4556 10.4374 46.58 10.313C46.7044 10.1887 46.7933 9.69113 46.7933 9.17583C46.7933 8.66053 46.9177 7.61215 47.0599 6.84809C47.202 6.08402 47.3264 5.10672 47.3264 4.6625C47.3264 4.21827 47.4153 3.50751 47.5219 3.08106C47.6641 2.47691 47.6463 2.26368 47.4686 2.1393C47.3442 2.06822 43.6477 2.01492 39.2403 2.05045L31.2429 2.08599L29.1458 6.35055C27.9907 8.69606 26.9777 10.7395 26.871 10.8817C26.7822 11.0238 26.6578 11.2726 26.6045 11.4147C26.2313 12.3565 24.2586 16.1235 24.1342 16.1235C24.0631 16.1235 23.8498 15.4483 23.6543 14.6131C23.3167 13.1561 23.0856 12.1788 22.6236 10.2597C22.4992 9.7622 22.3392 9.05144 22.2681 8.66053C22.197 8.26961 22.0371 7.54108 21.9127 7.06131C21.6639 6.04848 21.3262 4.60919 21.0241 3.32982C20.9175 2.85006 20.7398 2.35253 20.6331 2.22814C20.4909 2.05045 18.7493 1.99715 12.387 1.99715H4.31856L4.14084 2.44137C4.05198 2.67237 3.89204 3.57859 3.7854 4.4315C3.67877 5.30218 3.46551 6.88362 3.30556 7.96753C3.14562 9.05144 3.05676 10.0643 3.12785 10.2242C3.21671 10.473 3.50106 10.5263 4.56737 10.5263C5.29601 10.5263 5.95357 10.6151 6.00689 10.704C6.0602 10.8106 6.04243 11.468 5.9358 12.1788C5.58036 14.6842 5.34933 16.4967 5.27824 17.3673C5.22493 17.8471 5.08275 19.0909 4.94058 20.1215C4.7984 21.1521 4.60291 22.698 4.47851 23.5865C4.3541 24.4572 4.21193 25.5411 4.15861 25.9853L4.05198 26.7849L2.59469 26.8738C1.79496 26.9271 1.11963 26.9981 1.08408 27.0515C1.03077 27.1048 0.906365 27.78 0.781962 28.5618C0.568699 29.859 0.444296 31.0139 0.124403 34.3723L0 35.5806H7.90848C14.1642 35.5806 15.8703 35.5273 16.0124 35.3496C16.1191 35.2252 16.2612 34.5677 16.3146 33.8925C16.5634 30.8718 16.5811 30.7829 16.9366 30.7829C17.1854 30.7829 17.3098 30.9606 17.3809 31.4404C17.4342 31.8135 17.5941 32.5598 17.7363 33.0929C17.8607 33.626 18.0207 34.3723 18.0917 34.7277C18.2339 35.5806 18.3406 35.6161 21.3618 35.545L23.7254 35.4917L24.3119 34.3367C25.236 32.5065 26.4978 29.8412 26.6045 29.4858C26.7822 28.9172 27.0665 29.3614 27.0665 30.1966C27.0665 30.6408 26.9421 31.7425 26.7822 32.6487C26.64 33.5549 26.5334 34.55 26.5689 34.8876L26.6222 35.4917L34.9572 35.545C41.0708 35.5806 43.3456 35.5273 43.541 35.3851C43.7188 35.2252 43.8965 35.2252 44.1808 35.3674C45.7981 36.1492 49.1569 36.398 50.7031 35.8471C51.8227 35.4562 69.8434 35.4562 70.963 35.8471C72.0293 36.2203 75.1749 36.2025 76.419 35.8116C77.7519 35.3851 77.823 35.5095 77.4853 37.6596C77.3253 38.6191 77.1654 39.934 77.0943 40.5914C77.041 41.2489 76.9521 41.9241 76.8988 42.0663C76.81 42.2973 77.7341 42.3328 84.8784 42.3328H92.9823L93.0712 41.32C93.1423 40.7514 93.32 39.3476 93.48 38.1926L93.7643 36.1136H95.5415C97.5853 36.1136 99.4513 35.6694 100.82 34.852C100.962 34.7632 101.211 34.6388 101.353 34.5677C101.886 34.3367 103.059 33.3595 104.019 32.3466C104.57 31.778 105.049 31.316 105.103 31.316C105.156 31.316 105.458 31.6714 105.778 32.1156C106.311 32.8619 108.248 34.5144 108.586 34.5144C108.675 34.5144 108.835 34.6033 108.959 34.7277C109.208 34.9764 110.097 35.2963 111.749 35.7583C112.656 36.007 113.58 36.1136 115.144 36.1136C117.454 36.1136 119.036 35.8116 121.115 34.9764C121.719 34.7277 122.27 34.5677 122.359 34.6211C122.43 34.6744 122.501 34.9054 122.501 35.1541V35.5806H130.481C136.985 35.5806 138.478 35.545 138.549 35.3496C138.603 35.2074 138.727 34.5144 138.834 33.7859C139.296 30.4453 139.474 29.0238 139.474 28.1176V27.1403L137.998 27.087C136.932 27.0515 136.506 26.9626 136.435 26.7849C136.275 26.3762 136.914 23.6753 137.394 22.7158C138.212 21.0988 140.06 19.6773 141.517 19.5529C142.086 19.4996 142.139 19.5352 142.122 19.9438C142.104 20.4591 141.802 22.929 141.393 25.7188C141.233 26.7849 141.109 28.6684 141.109 29.8945C141.109 31.778 141.18 32.24 141.5 32.9152C142.175 34.3545 143.312 35.3318 144.912 35.8116C146.813 36.398 151.007 36.0959 152.642 35.2607C154.544 34.3012 154.366 34.4967 154.615 32.8797C154.74 32.0623 154.882 30.8896 154.953 30.2499C155.006 29.6102 155.166 28.3486 155.308 27.4246C155.486 26.3407 155.522 25.701 155.415 25.5944C155.237 25.4167 154.722 25.6122 152.642 26.625C151.665 27.1048 151.612 27.0337 151.736 25.3101C151.807 24.4572 151.967 23.089 152.109 22.2538C152.234 21.4187 152.376 20.3881 152.394 19.9438L152.447 19.1442L154.26 19.0554C155.255 19.0021 156.161 18.8777 156.268 18.7711C156.392 18.6467 156.534 17.8116 156.623 16.9053C156.712 15.9814 156.854 14.7908 156.961 14.2578C157.05 13.7247 157.174 12.5875 157.245 11.7523C157.37 9.9399 157.423 9.9932 155.166 9.9932C154.42 9.9932 153.762 9.92213 153.709 9.85105C153.655 9.7622 153.691 9.1936 153.78 8.55391C154.135 6.11956 154.473 3.27652 154.58 2.12153C154.668 1.05539 154.651 0.931006 154.366 0.948775C154.189 0.948775 153.691 1.23308 153.247 1.57069ZM153.727 4.18273C153.567 5.1778 153.424 6.27948 153.424 6.65263C153.424 7.00801 153.3 7.91423 153.158 8.67829C152.767 10.704 152.767 10.6862 154.811 10.7395L156.534 10.7928L156.588 11.628C156.623 12.0899 156.552 12.9429 156.446 13.4937C156.339 14.0623 156.179 15.2706 156.09 16.1768C156.019 17.083 155.841 17.936 155.735 18.0781C155.575 18.2736 155.095 18.3446 153.886 18.3446C152.074 18.3446 151.825 18.469 151.825 19.3219C151.825 19.6062 151.718 20.6546 151.576 21.6319C151.256 23.6753 150.883 26.625 150.865 27.1403C150.83 27.7267 151.772 27.6911 153.122 27.0515C154.295 26.5006 154.971 26.4828 154.757 27.0337C154.686 27.1936 154.562 28.0821 154.491 29.006C154.402 29.93 154.26 31.0495 154.153 31.4937C154.046 31.9379 153.958 32.6309 153.958 33.0396C153.958 33.626 153.851 33.857 153.496 34.1413C153.229 34.3545 152.927 34.5144 152.785 34.5144C152.66 34.5144 152.34 34.6211 152.056 34.7632C150.066 35.7583 146.618 35.8293 144.272 34.9409C143.49 34.6388 142.495 33.5905 142.05 32.5776C141.606 31.6003 141.571 28.8461 141.944 26.2518C142.353 23.4799 142.637 21.3831 142.744 20.0682C142.886 18.5223 142.744 18.3802 141.482 18.7889C139.242 19.5174 137.75 20.7257 136.754 22.6092C136.328 23.391 135.83 25.5055 135.83 26.5539V27.5668L137.288 27.6201C139.029 27.6911 138.994 27.6378 138.709 29.8057C138.603 30.5875 138.425 31.9379 138.318 32.8086C138.016 35.314 138.923 35.0653 130.445 35.012L123.123 34.9587L123.106 34.2657C123.106 33.5194 122.839 33.2706 122.413 33.626C122.057 33.9281 120.866 34.5144 120.618 34.5144C120.511 34.5144 120.173 34.6388 119.907 34.781C119.622 34.9231 119.249 35.0475 119.089 35.0475C118.929 35.0475 118.325 35.1719 117.756 35.314C116.441 35.6517 113.758 35.6517 112.62 35.314C112.14 35.1719 111.589 35.0475 111.394 35.0475C111.198 35.0475 110.808 34.9231 110.523 34.781C110.257 34.6388 109.954 34.5144 109.866 34.5144C109.777 34.5144 109.297 34.2657 108.782 33.9458C107.68 33.2884 106.205 31.8669 105.636 30.9251C105.423 30.5519 105.174 30.2499 105.085 30.2499C104.996 30.2499 104.676 30.5875 104.339 30.9962C103.361 32.2578 101.744 33.7148 100.997 34.0347L100.464 34.3012C98.8648 35.2074 97.0343 35.6339 94.9728 35.545L93.2845 35.4917L93.0534 36.6467C92.929 37.2864 92.7513 38.6368 92.6624 39.6675C92.538 41.1067 92.4314 41.5687 92.1826 41.7464C91.9338 41.9419 90.4054 41.9774 84.8251 41.9419L77.8052 41.8886L77.7519 41.0001C77.7163 40.5026 77.8052 39.4009 77.9651 38.5125C78.1073 37.624 78.2672 36.398 78.3206 35.776C78.4094 34.4967 78.6405 34.55 76.2057 35.2252C75.0683 35.545 74.4641 35.5983 73.1845 35.545C72.2959 35.4917 71.3895 35.3674 71.1763 35.243C70.8742 35.083 68.4039 35.012 61.8461 34.9764C56.941 34.9409 52.7291 34.8876 52.4803 34.8698C52.2315 34.8343 51.4317 34.9942 50.7031 35.1897C49.0859 35.6517 47.0421 35.6872 45.7981 35.2963C44.6251 34.9231 43.5944 34.4611 43.5944 34.2834C43.5944 34.2124 43.47 34.1591 43.3278 34.1591C43.1856 34.1591 43.0612 34.2834 43.0612 34.4256C43.0612 35.012 42.4214 35.0475 34.8506 35.012C26.1779 34.9587 27.0665 35.2074 27.3864 32.8264C27.4931 32.0445 27.6708 30.6408 27.7952 29.7168C27.9018 28.7928 28.0262 27.9399 28.0795 27.8155C28.1506 27.6556 28.5949 27.5845 29.5724 27.5845C31.2074 27.5845 31.3318 27.4601 31.3318 25.9498C31.3318 25.4345 31.4206 24.6882 31.5273 24.2973C31.6161 23.9063 31.7761 22.7869 31.8649 21.8096C31.9538 20.8323 32.1315 19.4108 32.2381 18.6467C32.4159 17.5983 32.4159 17.2252 32.2559 17.0653C32.096 16.9053 32.0249 16.9409 31.9538 17.2074C31.8294 17.5628 30.8697 19.6773 30.6209 20.1215C30.4254 20.4414 29.8212 21.703 29.6612 22.0761C29.6079 22.2183 29.4835 22.467 29.3946 22.6092C29.3058 22.7514 28.6127 24.1551 27.8663 25.7188C27.1199 27.2825 26.4445 28.6862 26.3557 28.8284C26.1602 29.166 25.005 31.4937 24.8628 31.8491C24.8095 31.9912 24.6851 32.24 24.5962 32.3822C24.5074 32.5243 24.2764 32.9685 24.0986 33.3595C23.2989 35.0653 23.3522 35.0475 21.2196 35.0475C19.0337 35.0475 18.7493 34.9231 18.536 33.8748C18.3761 33.0574 18.074 31.7602 17.7363 30.5164C17.6119 30.0189 17.3631 28.9883 17.2032 28.2064C17.0432 27.4246 16.8299 26.4651 16.7233 26.0742C16.6167 25.6832 16.4567 25.0436 16.3857 24.6526C16.1368 23.4088 15.3904 20.6013 15.1772 20.2282C15.0172 19.8905 14.8217 20.7612 14.8217 21.934C14.804 22.5914 14.6796 23.6576 14.5374 24.2973C14.3774 24.9547 14.2708 25.9498 14.3063 26.5006L14.3597 27.4957L15.3904 27.549L16.4034 27.6023V28.2597C16.4034 28.6151 16.3146 29.237 16.2257 29.628C16.1191 30.0189 15.9591 31.2094 15.8703 32.2933C15.7636 33.4305 15.5681 34.4078 15.426 34.6388L15.1594 35.0475H8.17505C0.284349 35.0475 0.408753 35.0653 0.746418 33.8748C0.853049 33.5016 0.941908 32.7375 0.95968 32.2045C0.95968 31.6714 1.10186 30.4276 1.27957 29.4503L1.5817 27.6734L3.07453 27.5845L4.56737 27.4957L4.81617 25.9853C4.94058 25.1502 5.11829 23.7997 5.20715 22.9646C5.27824 22.1294 5.43819 20.779 5.54482 19.9438C5.66922 19.1087 5.86471 17.545 6.00689 16.4789C6.14906 15.395 6.34455 13.7958 6.46895 12.9251C6.59336 12.0366 6.69999 11.0416 6.69999 10.704L6.71776 10.082L5.34933 9.9932C4.60291 9.93989 3.92758 9.83328 3.85649 9.7622C3.7854 9.69113 3.80318 9.06921 3.92758 8.37622C4.05198 7.701 4.14084 6.75924 4.15861 6.29725C4.15861 5.83525 4.30079 4.82242 4.46074 4.04058L4.76286 2.61906L12.3692 2.56575L19.9756 2.53022L20.3132 3.27652C20.5087 3.70297 20.6687 4.23604 20.6687 4.46704C20.6687 4.69804 20.7753 5.30218 20.9175 5.79971C21.2729 7.06131 21.575 8.35845 21.735 9.1936C21.8061 9.58451 21.966 10.2953 22.0904 10.7928C22.197 11.2726 22.4103 12.1255 22.5347 12.6586C22.6591 13.1916 22.8724 14.0268 22.979 14.5243C23.1034 15.0041 23.2811 15.8037 23.37 16.3012C23.5655 17.2607 23.7965 17.8116 24.0275 17.8116C24.152 17.8116 25.6092 14.9863 26.0713 13.9024C26.1246 13.7602 26.249 13.5115 26.3379 13.3693C26.4267 13.2272 27.6352 10.8106 29.0214 8.00307C30.461 5.07119 31.6694 2.81452 31.8649 2.70791C32.0782 2.58352 34.7973 2.54799 39.4535 2.56575L46.7044 2.61906L46.7577 3.66743C46.7933 4.23604 46.7222 5.12449 46.6156 5.62202C46.4912 6.11956 46.349 7.22124 46.2779 8.09192C46.1891 8.94483 46.0824 9.7089 46.0113 9.77997C45.9402 9.85105 45.2471 9.9399 44.4652 9.97543C43.2034 10.0287 43.0434 10.0643 42.9723 10.4197C42.6169 12.1077 42.528 12.8007 42.528 13.6003C42.528 14.1156 42.4036 15.0218 42.2615 15.6437C42.1193 16.2479 42.0127 17.012 42.0304 17.3318C42.0482 17.6516 41.9416 18.7711 41.7639 19.855C41.3196 22.7514 41.0352 25.4345 41.1596 25.5589C41.2129 25.6122 41.3196 25.3812 41.3729 25.0258C41.444 24.6704 41.5684 24.3861 41.6395 24.3861C41.7283 24.3861 41.8527 24.2262 41.906 24.013C42.4036 22.4848 45.3893 19.7662 46.7933 19.5529C47.8774 19.393 46.8288 18.8244 44.7495 18.4335C44.4652 18.3802 43.8254 18.238 43.3278 18.0959C42.5103 17.8649 42.4392 17.8116 42.4925 17.3496C42.5991 16.3545 43.6477 14.5954 44.714 13.6358C47.3798 11.2015 51.4317 10.2597 56.3723 10.8994C60.1577 11.397 62.9124 13.3693 63.3922 15.9458C63.5344 16.6921 63.801 16.6033 64.2808 15.626C64.4407 15.3061 64.6718 14.8974 64.7962 14.702C65.1338 14.1334 67.2309 12.1255 67.4797 12.1255C67.5864 12.1255 67.7819 12.0366 67.9063 11.9123C68.1906 11.628 69.2391 11.2726 70.6964 10.935C72.0116 10.6507 73.8243 10.704 75.4948 11.0593C76.5789 11.3081 75.5659 11.2903 84.8073 11.2548C89.0548 11.237 92.5558 11.2726 92.6091 11.3259C92.6624 11.3614 92.698 11.6457 92.6802 11.9478C92.6802 12.2321 92.7335 12.5164 92.8046 12.5519C92.8757 12.6052 93.3733 12.4276 93.9065 12.1788C95.0794 11.6102 95.8792 11.4147 97.603 11.2903C99.2203 11.166 100.518 11.4325 102.064 12.1788C103.45 12.854 105.174 14.5065 105.778 15.7504L106.187 16.6033L107.555 15.1818C109.173 13.4937 109.954 12.9073 111.483 12.1788C113.011 11.4503 113.669 11.237 114.948 11.006C116.21 10.775 119.391 10.7395 120.635 10.935C121.986 11.166 123.728 11.8767 124.741 12.6052C125.505 13.1739 125.647 13.1205 125.789 12.3209C125.86 11.93 126.002 11.5213 126.145 11.4147C126.393 11.2193 136.577 11.1304 136.897 11.3259C137.003 11.397 137.074 11.699 137.074 12.0366V12.6408L137.927 12.161C139.402 11.3259 140.469 11.006 142.637 10.775C143.632 10.6507 143.685 10.6329 144.023 9.92213C144.29 9.33575 144.858 8.82045 146.547 7.55885C147.737 6.65263 148.981 5.71087 149.319 5.42657C151.345 3.73851 153.709 2.05045 153.869 2.19261C153.975 2.29922 153.922 3.00998 153.727 4.18273ZM44.1275 18.9132C45.5137 19.2509 45.4604 19.1975 45.0161 19.6773C44.7851 19.9261 44.5363 20.1215 44.4474 20.1215C44.3763 20.1215 43.8432 20.548 43.2922 21.0811C42.6169 21.703 42.2259 21.9873 42.1548 21.8451C42.0838 21.7207 42.1548 21.0278 42.297 20.2992C42.6347 18.5046 42.6525 18.469 43.0257 18.6112C43.1856 18.6645 43.6832 18.8066 44.1275 18.9132ZM31.3318 21.1699C31.3318 21.4542 31.2074 22.3249 31.0652 23.089C30.923 23.853 30.7986 24.8836 30.7986 25.3812C30.7986 26.625 30.5676 26.8738 29.3236 26.9626C28.5949 26.9981 28.2572 26.9448 28.2039 26.7849C28.1506 26.6605 28.3461 26.0919 28.6305 25.5233C30.3899 22.0228 30.7986 21.1344 30.7986 20.9034C30.7986 20.7612 30.923 20.6546 31.0652 20.6546C31.2429 20.6546 31.3318 20.8323 31.3318 21.1699ZM15.888 25.1502C15.9591 25.6477 16.0658 26.2163 16.1368 26.3762C16.3323 26.856 15.426 27.2114 15.035 26.8205C14.7862 26.5717 14.7862 26.394 14.9461 25.5233C15.1416 24.546 15.4615 23.9241 15.657 24.1196C15.7103 24.1729 15.817 24.6349 15.888 25.1502Z" fill="black"/>
<path d="M5.84652 4.34244C5.57994 5.35527 5.24228 8.14501 5.38445 8.28716C5.47331 8.376 6.05978 8.42931 6.6818 8.41154C7.97914 8.35823 8.5123 8.67808 8.33458 9.3533C8.21018 9.72645 8.068 10.8459 7.58816 14.7018C7.44599 15.8745 7.2505 17.4382 7.14387 18.1667C7.03724 18.8953 6.87729 20.1746 6.8062 21.0098C6.66403 22.4135 6.57517 23.1598 6.05978 26.9624C5.95315 27.7442 5.79321 28.4905 5.68658 28.5971C5.57994 28.7393 5.04679 28.8281 4.21151 28.8281C2.73645 28.8281 2.54096 28.9881 2.54096 30.1608C2.54096 30.5162 2.4521 31.3513 2.34547 32.0443C2.22106 32.7195 2.18552 33.3237 2.23884 33.377C2.29215 33.4481 4.99347 33.4836 8.24572 33.5014C13.1152 33.5014 14.1638 33.4658 14.2704 33.2526C14.4836 32.8795 14.8569 30.0542 14.7858 29.45C14.7147 28.9347 14.6614 28.917 13.7372 28.8281L12.7598 28.7393L12.7775 27.8508C12.7775 27.3533 12.8842 26.2339 13.0086 25.3632C13.5951 21.0453 13.7372 19.9614 13.8083 19.144C13.8439 18.6465 13.9683 17.6159 14.0749 16.8341C14.1815 16.0522 14.3237 14.9683 14.377 14.4352C14.4126 13.9022 14.537 13.3336 14.6436 13.1914C14.7858 12.9604 14.8391 12.9782 15.0701 13.2625C15.2123 13.4579 15.3367 13.8311 15.3367 14.0976C15.3367 14.3642 15.4433 14.9683 15.5855 15.4303C15.9232 16.6208 16.2431 17.9357 16.403 18.7886C16.4741 19.1796 16.634 19.8903 16.7584 20.3879C16.8651 20.8676 17.0783 21.7205 17.2027 22.2536C17.3271 22.7867 17.5226 23.6218 17.647 24.1193C18.2513 26.607 18.3757 27.2112 18.5356 27.993C18.6245 28.455 18.7667 29.0947 18.8733 29.4145C19.1221 30.2852 19.4598 31.6712 19.6019 32.5241C19.673 32.9328 19.7797 33.3237 19.833 33.3948C19.9751 33.5369 21.6635 33.608 22.2144 33.5014C22.481 33.4303 22.7831 33.0216 23.2452 32.0621C23.6006 31.298 23.9738 30.5695 24.0627 30.4273C24.1515 30.2852 24.2759 30.0364 24.3293 29.8943C24.4537 29.6277 26.373 25.683 30.5316 17.1894C31.829 14.5418 33.1796 11.7699 33.5528 11.0058C33.9261 10.2595 34.2993 9.6376 34.3881 9.6376C34.6014 9.6376 34.4948 12.072 34.1926 14.2575C33.6772 17.9535 33.464 19.5527 33.3929 20.3879C33.3574 20.8676 33.233 21.9515 33.1085 22.7867C32.5754 26.8202 32.3444 28.4017 32.291 28.5971C32.2555 28.7571 31.7934 28.8281 30.7982 28.8281C29.803 28.8281 29.3409 28.8992 29.3054 29.0591C29.1099 29.7521 28.63 33.2882 28.7189 33.377C28.9322 33.5902 41.3191 33.5547 41.6035 33.3415C41.799 33.1993 41.9056 32.7551 41.9589 31.9555C42.0478 30.7294 42.3855 30.3385 42.5987 31.2447C42.7587 31.8311 44.0205 33.0749 45.0157 33.608C45.7443 33.9989 46.0287 34.0522 48.0369 34.0522C49.8496 34.0522 50.4539 33.9811 51.3247 33.6791C52.5687 33.2348 53.4929 32.7906 53.635 32.5419C53.8661 32.1865 54.2393 32.3997 54.2926 32.9505L54.3459 33.5014L61.0104 33.5369C67.2127 33.5725 67.7103 33.5547 68.2257 33.2348C68.7411 32.9505 68.8477 32.9328 69.292 33.1638C70.9093 33.9811 71.3536 34.07 73.6995 34.0522C76.0987 34.0522 76.0987 34.0522 78.0536 33.1105C79.0488 32.6485 80.8082 30.7827 81.3414 29.6277C82.23 27.762 82.3544 24.9012 81.6257 23.5152C81.1814 22.6801 80.9504 22.4135 80.204 21.8627C79.0843 21.0275 78.178 20.7432 73.6284 19.8192C71.7801 19.4461 70.8204 19.0019 70.6782 18.4333C70.5005 17.7403 70.7316 17.1539 71.3536 16.7274C71.8334 16.3721 72.1355 16.3188 73.3618 16.3365C75.0857 16.3543 75.9387 16.7097 76.8629 17.8113L77.4849 18.5221H81.9811L82.07 18.0246C82.2655 17.1006 82.3899 17.0117 83.5095 17.0117H84.5581V18.2556C84.5403 18.9308 84.4514 20.2102 84.327 21.0986C83.7939 24.8479 83.5806 26.4826 83.5095 27.3178C83.4207 28.3484 83.1363 30.4984 82.7631 33.0039C82.6209 33.9811 82.5143 34.994 82.5143 35.2783C82.5143 35.8469 81.9278 36.149 80.9148 36.1134C79.8485 36.0601 79.7064 36.0957 79.5819 36.4688C79.3509 37.1796 79.191 40.1115 79.3687 40.3425C79.6175 40.6623 90.7427 40.6623 91.0092 40.3247C91.2581 40.0226 91.5779 38.1924 91.5779 37.0552C91.5779 36.0068 91.6313 36.0601 90.1207 36.1134C89.3031 36.1312 89.0899 36.0779 88.9477 35.8114C88.6456 35.2427 89.1432 31.3158 89.5164 31.3158C89.5697 31.3158 90.0318 31.7245 90.5472 32.222C91.0626 32.7195 91.9334 33.3415 92.4665 33.5902C93.3374 33.9989 93.6573 34.0522 95.5766 34.07C97.8159 34.07 98.1535 33.9989 100.073 33.0394C102.134 32.0088 104.107 29.5034 104.978 26.8025C105.138 26.3227 105.333 26.5892 105.795 27.9397C106.826 30.996 108.39 32.5596 111.571 33.7324C112.282 33.9989 112.975 34.07 115.126 34.0522C117.791 34.0522 118.538 33.9278 120.28 33.1815C120.582 33.0572 120.937 32.8972 121.079 32.8439C121.63 32.5952 122.181 32.2398 123.247 31.3869C124.758 30.1786 124.776 30.1608 124.9 30.2852C124.971 30.3385 124.918 30.8716 124.811 31.4402C124.687 32.0088 124.634 32.7195 124.669 33.0039L124.722 33.5369L130.765 33.4836L136.79 33.4481L137.127 31.4935C137.305 30.4096 137.412 29.3967 137.358 29.2546C137.269 29.0236 136.985 28.9881 135.954 29.0058C134.035 29.0591 134.177 29.148 134.284 27.993C134.692 23.4264 135.332 21.6317 137.287 19.7126C137.945 19.0552 138.602 18.5221 138.727 18.5221C138.851 18.5221 139.047 18.4333 139.171 18.3089C139.686 17.7936 143.916 16.763 144.236 17.0828C144.414 17.2605 144.343 18.6287 144.023 21.0098C143.898 21.8449 143.703 23.3553 143.561 24.3859C142.939 28.9525 142.85 30.534 143.187 31.6889C143.667 33.3059 144.609 33.9278 146.884 34.0878C149.159 34.2477 151.753 33.7679 152.464 33.0749C152.784 32.7373 153.157 29.0236 152.891 28.7571C152.784 28.6504 152.553 28.6682 152.269 28.7926C151.131 29.3079 149.781 28.9347 149.639 28.0463C149.496 27.1223 149.816 23.9772 150.545 19.0552L150.847 17.0117L152.624 16.9584C153.602 16.9407 154.455 16.8518 154.526 16.7807C154.686 16.6208 154.988 14.6485 155.059 13.2802L155.112 12.2141L153.335 12.1253L151.558 12.0364L151.576 11.3257C151.594 10.2417 151.984 6.79456 152.162 6.06603C152.233 5.69288 152.251 5.31973 152.18 5.21312C152.109 5.07097 151.096 5.72842 149.319 7.09663C147.808 8.23385 146.386 9.3533 146.138 9.5843C145.889 9.81529 145.64 9.99298 145.569 9.99298C145.516 9.99298 145.409 10.3306 145.338 10.7393C145.107 12.1075 145.071 12.1253 143.241 12.1253C140.842 12.1253 138.887 12.836 137.376 14.2398C136.807 14.7551 135.83 16.1411 135.83 16.4076C135.83 16.4964 135.705 16.5675 135.546 16.5675C135.243 16.5675 135.243 16.0344 135.528 13.1914L135.563 12.7472H127.211L126.926 14.4352C126.784 15.3592 126.606 16.1233 126.535 16.1233C126.482 16.1233 126.233 15.8568 125.984 15.5369C124.971 14.1687 123.159 13.0137 121.061 12.4096C119.622 12.0009 116.228 12.0364 114.557 12.4806C112.069 13.1381 110.007 14.3997 108.39 16.2477C107.679 17.065 106.72 18.7353 106.435 19.6416C106.364 19.837 106.204 19.9436 106.026 19.9081C105.795 19.8726 105.653 19.5705 105.511 18.8775C105.227 17.4027 104.427 15.8745 103.343 14.7373C102.81 14.1865 102.277 13.7245 102.152 13.7245C102.046 13.7245 101.868 13.6356 101.761 13.529C101.637 13.4046 101.121 13.1736 100.606 12.9959C99.4509 12.5695 96.5185 12.534 95.6299 12.9071C93.835 13.6712 93.1774 14.0088 93.1774 14.1154C93.1774 14.2042 93.0886 14.2575 92.9819 14.2575C92.8753 14.2575 92.4488 14.5418 92.0222 14.8795C91.0803 15.6613 90.9559 15.5191 91.1159 13.8844L91.2403 12.6583H84.7713C79.1732 12.6583 78.2668 12.6939 78.178 12.9249C78.0713 13.2092 77.1827 13.298 76.9162 13.0315C76.8095 12.9426 76.2586 12.6939 75.6721 12.4984C74.1971 11.9831 71.4602 11.9831 70.0207 12.4806C67.6393 13.3158 66.2886 14.4885 65.3289 16.5675C64.9379 17.4204 64.8669 17.7936 64.8669 19.4106C64.8491 21.1164 64.8846 21.3296 65.3111 21.9871C65.56 22.378 66.0043 22.9111 66.2708 23.1598C66.9106 23.7284 68.1902 24.3859 68.67 24.3859C68.8655 24.3859 69.1676 24.457 69.3454 24.5636C69.5231 24.6524 70.1095 24.8123 70.6249 24.9012C73.4862 25.4165 75.3345 25.9673 75.8499 26.4471C76.6496 27.1934 76.383 28.5261 75.2812 29.2546C74.6947 29.6633 74.4281 29.7166 73.0419 29.7166C71.8334 29.7166 71.318 29.6455 70.7849 29.3612C69.9674 28.9525 69.1854 27.8864 69.1854 27.1934C69.1854 26.2516 69.1676 26.2516 66.7507 26.2694C64.2271 26.2872 64.3692 26.1983 64.1382 27.7975C64.0671 28.2595 63.9072 28.7393 63.7828 28.8637C63.6051 29.0591 62.3966 29.1302 61.2947 29.0236C61.0281 28.9881 61.3125 25.8962 62.0056 21.3651C62.3788 18.842 62.3432 16.6208 61.899 15.6258C61.2947 14.2753 59.7308 13.0137 58.1669 12.6583C57.8292 12.5695 57.225 12.4273 56.834 12.3207C55.7321 12.0364 50.9337 12.0897 50.0807 12.3918C49.6897 12.534 49.2276 12.6583 49.0499 12.6583C48.7478 12.6583 48.1791 12.9071 47.326 13.3869C47.1839 13.4757 46.8995 13.6179 46.704 13.7067C46.0465 14.0088 44.1271 16.1944 44.1271 16.6564C44.1271 16.8341 45.3534 17.2072 47.3616 17.6514L48.3746 17.8647L49.3165 17.1539C49.974 16.6564 50.6671 16.3365 51.538 16.1055C52.7642 15.8034 52.8531 15.8034 53.795 16.0878C54.4881 16.3188 54.9324 16.5853 55.3234 17.065C55.8387 17.687 55.8565 17.7936 55.8565 19.375C55.8565 21.223 55.7143 21.4185 54.7191 21.0275C54.026 20.7432 53.1019 20.5122 51.5024 20.2635C50.4183 20.0858 50.0451 20.1035 48.8366 20.3879C45.229 21.223 42.9719 23.5152 42.3499 26.9624C42.0478 28.7571 42.0656 28.7393 40.6438 28.7393H39.4176L39.4353 27.8508C39.4353 27.3533 39.542 26.2339 39.6664 25.3632C40.2528 21.0453 40.395 19.9614 40.4661 19.144C40.5372 18.2911 40.6616 17.3671 41.1947 13.3691C41.3369 12.3385 41.4969 10.988 41.5502 10.3661C41.6035 9.72645 41.7634 9.03346 41.9056 8.80246C42.1544 8.41154 42.2966 8.376 43.434 8.41154C44.3404 8.42931 44.7313 8.376 44.838 8.19831C44.9801 7.96732 45.1756 6.49249 45.2467 4.92881L45.2823 4.21805L38.8489 4.16475L32.4332 4.12921L30.2651 8.51816C29.0743 10.9525 28.0258 13.0493 27.9369 13.1914C27.8481 13.3336 27.7237 13.5823 27.6704 13.7245C27.5993 13.8666 26.7285 15.6613 25.7155 17.7047C24.7025 19.7304 23.8672 21.5251 23.8672 21.6495C23.8672 21.7916 23.7606 21.8982 23.6184 21.8982C23.2985 21.8982 22.7476 20.0325 22.2499 17.296C22.1611 16.7807 22.0011 16.1944 21.9123 16.0167C21.8056 15.839 21.7346 15.5014 21.7346 15.2704C21.7346 15.0216 21.6279 14.4352 21.4858 13.9732C21.2014 12.9782 20.8993 11.6988 20.6682 10.4727C20.5794 10.0108 20.4372 9.37107 20.3306 9.05123C20.1173 8.35823 19.8152 7.02556 19.5842 5.74619C19.2643 3.96929 19.9574 4.12921 12.4754 4.12921C7.3749 4.12921 5.89984 4.18252 5.84652 4.34244ZM129.361 17.1717C129.414 17.3138 129.361 17.9002 129.254 18.4688C129.13 19.0374 128.97 20.1746 128.881 21.0098C128.579 24.3503 127.939 28.7748 127.744 28.9703C127.602 29.1302 125.878 29.148 125.771 28.9881C125.718 28.8992 125.913 28.3661 126.198 27.7975C127.779 24.759 128.224 21.6139 127.459 18.6998C127.264 17.918 127.157 17.2072 127.211 17.1006C127.388 16.8163 129.254 16.8696 129.361 17.1717ZM96.6429 17.296C98.9533 17.9357 99.9307 20.6544 99.1488 24.2082C98.7045 26.1628 98.1891 27.2112 97.0872 28.2951C96.1453 29.2368 94.3859 29.6988 93.0886 29.379C91.3114 28.9347 90.5827 27.9219 90.0673 25.1855C89.8719 24.1016 90.7071 20.6722 91.4535 19.5172C92.6443 17.6337 94.688 16.763 96.6429 17.296ZM118.538 17.3138C121.381 18.0601 122.252 22.0404 120.475 26.0562C119.729 27.7087 117.525 29.1835 115.783 29.1835C114.379 29.1835 112.869 28.2062 112.176 26.838C111.696 25.8962 111.696 22.7334 112.176 21.3651C113.029 18.9841 113.935 18.0068 115.925 17.3494C116.761 17.065 117.543 17.065 118.538 17.3138ZM54.0082 24.7413C55.2345 25.3454 55.3234 25.5231 55.0568 26.8735C54.7902 28.1351 54.3104 28.686 52.9242 29.3612C51.0048 30.2674 49.6719 30.1963 48.8366 29.1124C48.2679 28.3661 48.2324 26.9979 48.73 26.0029C49.121 25.2566 50.0451 24.4747 50.7205 24.3326C51.5024 24.1549 53.2441 24.3859 54.0082 24.7413Z" fill="black"/>
<path d="M93.7996 19.0197C92.289 20.0681 91.5781 21.8273 91.5781 24.5637C91.5781 26.5716 91.7203 26.998 92.68 27.7443C93.7996 28.6328 96.2877 27.8509 96.9274 26.4294C97.0163 26.234 97.1585 25.9497 97.2473 25.8075C97.6916 25.0434 97.8694 24.1195 97.9404 22.4492C98.0115 20.1747 97.9582 19.9437 97.1407 19.1441C96.5542 18.5755 96.4121 18.5222 95.5057 18.5222C94.7237 18.54 94.3683 18.6288 93.7996 19.0197ZM96.4476 19.3218C97.2118 19.8904 97.4428 20.5123 97.4428 21.9161C97.4428 23.1777 97.1052 24.8124 96.7142 25.4521C96.6253 25.5943 96.4831 25.8964 96.3765 26.1096C96.1099 26.767 94.8126 27.5844 94.0839 27.5844C93.3731 27.5666 92.911 27.3001 92.4312 26.5716C91.7558 25.541 92.1646 22.0049 93.1243 20.5479C93.924 19.3041 95.6123 18.6999 96.4476 19.3218ZM115.659 18.8421C114.486 19.5173 113.74 20.619 113.331 22.2537C112.869 24.1195 113.1 26.1629 113.864 27.0158C114.575 27.7976 116.388 27.9398 117.614 27.3001C118.2 26.998 119.036 25.9141 119.498 24.9191C119.871 24.0839 120.066 22.1649 119.906 20.8855C119.8 19.997 119.693 19.766 119.089 19.1797C118.449 18.5578 118.325 18.5222 117.294 18.5222C116.583 18.5222 116.014 18.6466 115.659 18.8421ZM118.698 19.6594C119.302 20.2636 119.302 20.2813 119.302 21.9161C119.302 24.0661 118.965 25.079 117.845 26.1984C117.027 27.0336 116.992 27.0513 115.872 27.0513C114.504 27.0513 114.131 26.7315 113.793 25.3277C113.633 24.5814 113.633 24.1195 113.811 23.1066C114.255 20.4946 115.499 19.0731 117.33 19.0553C117.969 19.0553 118.2 19.1619 118.698 19.6594ZM50.6851 25.8608C50.2763 26.1274 50.0275 26.4827 49.9209 26.927C49.4233 28.8816 50.9517 29.2014 53.1554 27.6022C54.0084 26.9803 53.9551 26.2873 53.0132 25.8075C52.1068 25.3455 51.4315 25.3633 50.6851 25.8608ZM52.8177 26.4472L53.2442 26.7493L52.8177 27.0869C52.5867 27.2646 52.0535 27.5844 51.6448 27.7976C51.005 28.1175 50.845 28.1353 50.614 27.9398C50.2408 27.6377 50.4007 26.9092 50.9161 26.465C51.3782 26.074 52.2668 26.074 52.8177 26.4472ZM50.7739 17.7937C50.1875 18.1135 49.5477 18.6821 49.6543 18.771C49.6899 18.8065 50.5607 18.9131 51.5914 19.0197C52.6222 19.1264 53.7241 19.2685 54.044 19.3218C54.5771 19.4462 54.6127 19.4107 54.6127 18.9842C54.6127 18.7177 54.4883 18.2735 54.3461 17.9891C54.0795 17.4738 54.044 17.4561 52.6933 17.4738C51.7336 17.4738 51.1649 17.5627 50.7739 17.7937ZM53.7241 18.2557C53.7241 18.4511 53.5108 18.5222 52.8532 18.5222C51.3782 18.5222 51.4848 18.0247 52.9776 18.0069C53.5286 17.9891 53.7241 18.0602 53.7241 18.2557ZM72.7044 17.5805C71.9402 17.7759 72.5622 18.309 73.824 18.5044C74.3572 18.5933 75.0147 18.7177 75.2813 18.7888C75.7612 18.9131 75.7612 18.8954 75.5657 18.4689C75.3169 17.9181 73.5219 17.3495 72.7044 17.5805ZM80.4885 20.1037C80.4352 20.1925 80.684 20.4768 81.0572 20.7611C81.4126 21.0276 81.8925 21.4363 82.1057 21.6673C82.319 21.8983 82.5678 22.076 82.6744 22.076C82.8699 22.076 83.1187 20.388 82.9588 20.1214C82.8166 19.9082 80.6129 19.8727 80.4885 20.1037ZM63.4275 21.5785C63.2676 22.0405 62.9654 24.1728 62.9654 24.7414C62.9654 25.2211 63.0187 25.2922 63.1787 25.1323C63.3031 25.0079 63.8896 24.9191 64.5649 24.9191C65.2225 24.9191 65.7912 24.8658 65.8622 24.8124C65.9156 24.7591 65.6134 24.3682 65.1691 23.9418C64.7426 23.5153 64.3872 23.0889 64.3872 23C64.3872 22.9112 64.2628 22.7335 64.1206 22.6091C63.9784 22.4847 63.854 22.2004 63.854 21.9694C63.854 21.5074 63.5341 21.2231 63.4275 21.5785ZM64.2272 24.0839C64.2095 24.2971 63.9607 24.2438 63.8896 24.0128C63.8363 23.9062 63.9073 23.8352 64.0317 23.8707C64.1384 23.924 64.2272 24.0128 64.2272 24.0839ZM70.6962 26.5893C70.2874 26.9092 70.8206 27.8865 71.567 28.2063C72.8644 28.7572 74.8726 28.3662 74.8726 27.5844C74.8726 27.3534 74.7126 27.2113 74.3927 27.1402C74.1084 27.0869 73.5752 26.9447 73.1842 26.8381C71.8869 26.4827 70.9628 26.3939 70.6962 26.5893ZM72.4201 27.2823C72.5445 27.4067 72.8466 27.6022 73.0954 27.7088L73.5397 27.922H73.0421C72.7755 27.9398 72.4201 27.8687 72.2423 27.7799C72.0824 27.691 71.798 27.5666 71.6203 27.5133C71.4426 27.46 71.3537 27.3356 71.4071 27.229C71.567 26.9803 72.1357 26.998 72.4201 27.2823ZM80.3108 33.1283C79.9376 33.5193 79.4222 33.9102 79.1911 33.999C78.4092 34.2833 78.7646 34.5143 80.0086 34.5143C81.3948 34.5143 81.4482 34.461 81.4482 33.1639C81.4482 32.2044 81.2349 32.1866 80.3108 33.1283Z" fill="black"/>
</g>
<defs>
<clipPath id="clip0_5106_3416">
<rect width="160" height="42.1053" fill="white" transform="translate(0 0.579102)"/>
</clipPath>
</defs>
</svg>
