<svg width="150" height="38" viewBox="0 0 150 38" fill="none" xmlns="http://www.w3.org/2000/svg">
<path d="M0.673828 27.4913C0.673828 28.7647 1.77693 29.4021 1.77693 29.4021L16.1185 37.6817C17.2216 38.3188 18.3244 37.6817 18.3244 37.6817L32.666 29.4021C33.7691 28.7651 33.7691 27.4913 33.7691 27.4913V10.9318C33.7691 9.65802 32.666 9.02099 32.666 9.02099L18.3244 0.741059C17.2216 0.104342 16.1185 0.741059 16.1185 0.741059L1.77693 9.02066C0.673826 9.6577 0.673828 10.9315 0.673828 10.9315V27.4913Z" fill="black"/>
<path d="M21.3131 6.79271V13.4504L5.41797 22.6279V27.1693L13.1442 31.6309V24.924L29.0267 15.7549V11.2455L21.3131 6.79271ZM5.41797 20.4855L13.1442 16.0246V6.79271L5.41797 11.195V20.4852V20.4855ZM29.0267 17.9384L21.2991 22.3989V31.6309L29.0267 27.2286V17.9384Z" fill="white"/>
<path d="M55.6923 16.5302H46.6578V8.07965H41.0908V30.4227H46.6574V21.5686H55.6923V30.4227H61.2899V8.07965H55.6923V16.5302ZM71.3536 7.89597L62.6122 30.384H68.1935L73.8692 14.9269L78.0754 26.3383L71.4757 26.2904L78.5659 30.384H85.308L76.6219 7.89597H71.3536ZM125.219 18.9419C124.042 17.9782 121.997 17.4728 118.396 16.825C115.234 16.2671 114.576 16.1511 114.576 14.3634C114.576 12.8731 115.281 12.395 117.478 12.395C120.146 12.395 122.928 12.7969 124.817 13.076L125.66 8.49327C124.237 8.13599 119.978 7.72922 117.508 7.72922C111.53 7.72922 108.979 9.67616 108.979 14.239C108.979 19.5041 110.468 20.3049 116.84 21.4422C120.336 22.0803 121.063 22.2128 121.063 23.9969C121.063 25.869 120.242 26.152 117.416 26.152C115.49 26.152 111.223 25.6491 109.95 25.4221L109.113 29.9443C110.31 30.184 113.618 30.6934 117.353 30.6934C124.206 30.6934 126.754 28.8952 126.754 24.0588C126.754 21.2449 126.339 19.8581 125.219 18.9419ZM101.073 20.3909L92.2265 8.0396H86.5026V30.383H91.821V16.5003L101.631 30.383H106.391V8.0396H101.073V20.3909ZM145.236 10.706H145.848V8.2793H146.682V7.72953H144.401V8.2793H145.236V10.7057V10.706ZM149.139 7.72922L148.522 9.77647H148.515L147.864 7.72922H147.002V10.706H147.575V8.61736H147.583L148.265 10.706H148.737L149.419 8.59652H149.427V10.706H150V7.72922H149.139ZM136.046 7.89597L127.305 30.3836H132.886L138.563 14.9266L142.768 26.3383L136.168 26.2907L143.259 30.3836H150V30.383L141.315 7.89597H136.046Z" fill="black"/>
</svg>
