<svg width="173" height="24" viewBox="0 0 173 24" fill="none" xmlns="http://www.w3.org/2000/svg">
<g clip-path="url(#clip0_5106_3424)">
<path d="M166.201 21.9207C166.201 21.0624 166.921 20.4291 167.774 20.4291C168.615 20.4291 169.333 21.0624 169.333 21.9207C169.333 22.7878 168.615 23.4175 167.774 23.4175C166.921 23.4175 166.201 22.7878 166.201 21.9207ZM167.774 23.1697C168.471 23.1697 169.024 22.6402 169.024 21.9207C169.024 21.2136 168.471 20.68 167.774 20.68C167.063 20.68 166.512 21.2136 166.512 21.9207C166.512 22.6402 167.063 23.1697 167.774 23.1697ZM167.445 22.7878H167.175V21.0624H167.854C168.276 21.0624 168.482 21.2136 168.482 21.5527C168.482 21.8603 168.282 21.9966 168.019 22.0291L168.529 22.7878H168.226L167.755 22.0389H167.445V22.7878ZM167.768 21.818C167.997 21.818 168.201 21.801 168.201 21.5372C168.201 21.3236 168 21.2838 167.812 21.2838H167.445V21.818H167.768Z" fill="black"/>
<path d="M61.4969 17.3448C63.8172 13.1616 60.7545 7.64582 55.2658 8.80193L58.9016 0.861386H53.3969L43.0791 23.2012H48.7628L49.0288 22.5664C53.7152 25.1238 59.0036 21.8361 61.4969 17.3448ZM57.2768 14.9727C57.1475 16.4911 54.8123 20.2402 51.239 18.4674C51.0077 18.3466 51.0755 18.0271 51.1615 17.8398C51.6903 16.662 52.9733 13.861 53.4081 12.9268C54.6515 12.1696 57.4845 12.5598 57.2768 14.9727Z" fill="black"/>
<path d="M170.603 8.28481L172.6 4.033H157.948L159.184 1.33625H156.076C155.864 1.33625 155.666 1.4369 155.557 1.61238C154.178 3.8668 150.95 4.14138 149.828 4.12848C149.587 4.12848 149.013 4.12074 149.013 4.12074L147.203 8.2523H150.205L145.634 18.4039C145.634 18.4039 134.23 18.4142 134.179 18.4142C133.121 18.4142 132.615 18.0576 132.569 17.3913C132.497 16.3518 132.849 15.2127 133.649 14.132C135.24 11.9849 137.954 11.9849 139.176 12.2915C140.501 12.6233 140.854 14.6073 139.369 14.6073H135.309C134.823 14.9908 134.157 16.4798 134.294 17.2736H139.764C143.474 17.2736 144.389 14.7074 144.343 13.4579C144.07 6.034 128.36 7.72276 128.377 18.4127H125.899C124.841 18.4127 124.569 17.6597 124.932 16.902C125.296 16.1448 132.139 1.12 132.139 1.12H126.469L122.387 9.67835C119.313 7.38263 109.38 9.80686 109.221 18.4215H106.762C105.75 18.4215 105.53 17.6798 105.865 16.902C106.199 16.1247 109.621 8.76584 109.621 8.76584H103.822L103.31 9.80118C99.0603 7.11064 90.3557 10.6234 89.9139 18.1505C89.9139 18.1505 75.1346 18.1675 75.1196 18.1675C72.3256 18.1675 70.3344 16.1237 71.5778 14.3183C78.2411 4.64821 96.3822 3.27326 86.6226 8.13875H94.7408C97.7459 4.08564 96.1152 0.0939473 89.1779 0.429943C77.1098 1.01523 65.1106 10.0871 65.2116 16.8241C65.2634 20.2501 69.6245 23.1868 73.8634 23.1868H90.0688L90.9042 21.3608C93.7346 24.7987 98.1384 23.8346 99.8087 21.4888C100.368 22.6366 102.112 23.4155 102.942 23.4155H109.316L110.232 21.3386C112.964 24.824 117.239 23.8346 118.886 21.5012C119.688 22.792 121.114 23.3762 121.791 23.3762L128.789 23.3804L129.599 21.5564C131.036 23.3128 132.833 23.4279 133.145 23.4155L145.394 23.4175L146.11 21.8346C146.462 22.4586 147.928 23.4155 149.587 23.4155C151.246 23.4155 163.879 23.4175 163.879 23.4175L166.08 18.4215H152.902C151.936 18.4215 151.747 17.7448 152.074 16.902C152.401 16.0597 156.052 8.28481 156.052 8.28481H170.603ZM101.941 13.6706C101.412 14.8483 100.129 17.6493 99.6933 18.5825C98.4498 19.3402 95.6179 18.9484 95.8262 16.5361C95.9549 15.0176 98.2917 11.2685 101.865 13.0429C102.095 13.1627 102.027 13.4822 101.941 13.6706ZM120.902 13.6706C120.373 14.8483 119.09 17.6493 118.654 18.5825C117.411 19.3402 114.579 18.9484 114.787 16.5361C114.915 15.0176 117.253 11.2685 120.826 13.0429C121.056 13.1627 120.988 13.4822 120.902 13.6706Z" fill="black"/>
<path d="M21.8271 8.13894H29.9304C32.4424 5.07782 32.1774 -0.138118 24.3663 0.430133C11.2781 1.38341 0.300131 10.0873 0.401081 16.8243C0.452358 20.2503 4.81458 23.187 9.05289 23.187H26.8986L27.6395 21.5153C28.1469 22.2461 29.0288 23.0508 30.4912 23.1855L35.4324 23.187C35.4324 23.187 36.044 21.9225 36.2918 21.4461C36.701 22.0144 37.7126 23.187 39.3609 23.187H41.889L44.2188 18.1698H42.4509C41.8526 18.1698 41.6224 17.5695 41.9125 16.9528C42.3547 16.0119 45.7502 8.81867 45.7502 8.81867H39.8876C39.8876 8.81867 35.6087 17.9948 35.5446 18.1698H33.9406C33.2964 18.1698 32.9364 17.6609 33.2505 16.9466C33.6313 16.0805 37.062 8.81867 37.062 8.81867H31.1904L27.1449 17.5886C27.1406 17.6103 27.0108 17.8364 26.9435 18.1698C26.9435 18.1698 10.3268 18.1682 10.3092 18.1682C7.51514 18.1682 5.66491 16.2075 6.76842 14.3185C12.1669 5.07782 31.5525 2.93023 21.8271 8.13894Z" fill="black"/>
</g>
<defs>
<clipPath id="clip0_5106_3424">
<rect width="173" height="24" fill="white"/>
</clipPath>
</defs>
</svg>
