<svg width="169" height="37" viewBox="0 0 169 37" fill="none" xmlns="http://www.w3.org/2000/svg">
<path d="M169 22.6475H0.368164V36.5198H169V22.6475Z" fill="black"/>
<path d="M23.625 33.7883H24.7607V30.6785H27.6812C29.3308 30.6785 30.2232 29.732 30.2232 28.2718C30.2232 26.8115 29.3308 26.0273 27.6272 26.0273H23.625V33.7883ZM24.7607 29.678V27.0279H27.7353C28.6277 27.0279 29.0604 27.5417 29.0604 28.2988C29.0604 29.056 28.6818 29.678 27.546 29.678H24.7607Z" fill="#FEFEFE"/>
<path d="M31.6562 29.9217C31.6562 31.8957 32.8461 34.0049 35.9559 34.0049C39.0927 34.0049 40.2825 31.8957 40.2825 29.9217C40.2825 27.9206 39.0927 25.8384 35.9559 25.8384C32.8461 25.8384 31.6562 27.9206 31.6562 29.9217ZM39.1197 29.9217C39.1197 31.9768 37.7406 33.0044 35.9559 33.0044C34.1982 33.0044 32.792 31.9768 32.792 29.9217C32.792 27.8665 34.1982 26.8389 35.9559 26.8389C37.7406 26.8389 39.1197 27.8665 39.1197 29.9217Z" fill="#FEFEFE"/>
<path d="M47.2584 27.3524H47.2314L45.0951 33.7883H43.8241L41.2822 26.0273H42.5261L44.5002 32.3551H44.5272L46.6094 26.0273H47.9885L50.0978 32.3551H50.1248L52.0989 26.0273H53.3157L50.6657 33.7883H49.4217L47.2584 27.3524Z" fill="#FEFEFE"/>
<path d="M54.7217 26.0273H60.9683V27.0279H55.8574V29.2994H60.806V30.2999H55.8574V32.7877H61.0765V33.7883H54.7217V26.0273Z" fill="#FEFEFE"/>
<path d="M63.0781 33.7883H64.2139V30.5163H67.2425C68.189 30.5163 68.6487 30.9219 68.7298 32.328C68.7839 33.2474 68.7839 33.5719 68.9732 33.7883H70.1901C69.9197 33.4908 69.8926 33.1393 69.8115 31.679C69.7844 30.7867 69.3788 30.1377 68.6757 30.0295C69.5411 29.732 70.0008 29.056 70.0008 28.1095C70.0008 27.109 69.4329 26.0273 67.8645 26.0273H63.0781V33.7883ZM64.2139 29.5157V27.0279H67.4589C68.4053 27.0279 68.838 27.5417 68.838 28.2718C68.838 28.8126 68.5676 29.5157 67.4318 29.5157H64.2139Z" fill="#FEFEFE"/>
<path d="M76.248 33.7883H77.4108V30.6785H80.3313C81.9538 30.6785 82.8462 29.732 82.8462 28.2718C82.8462 26.8115 81.9538 26.0273 80.2502 26.0273H76.248V33.7883ZM77.4108 29.678V27.0279H80.3854C81.2778 27.0279 81.7104 27.5417 81.7104 28.2988C81.7104 29.056 81.3319 29.678 80.1691 29.678H77.4108Z" fill="#FEFEFE"/>
<path d="M84.7656 33.7883H85.9014V30.5163H88.93C89.8765 30.5163 90.3362 30.9219 90.4173 32.328C90.4714 33.2474 90.4714 33.5719 90.6607 33.7883H91.8776C91.6071 33.4908 91.5801 33.1393 91.499 31.679C91.4719 30.7867 91.0663 30.1377 90.3632 30.0295C91.2286 29.732 91.6883 29.056 91.6883 28.1095C91.6883 27.109 91.1204 26.0273 89.552 26.0273H84.7656V33.7883ZM85.9014 29.5157V27.0279H89.1464C90.0928 27.0279 90.5255 27.5417 90.5255 28.2718C90.5255 28.8126 90.2551 29.5157 89.1193 29.5157H85.9014Z" fill="#FEFEFE"/>
<path d="M93.2021 29.9217C93.2021 31.8957 94.392 34.0049 97.5018 34.0049C100.639 34.0049 101.828 31.8957 101.828 29.9217C101.828 27.9206 100.639 25.8384 97.5018 25.8384C94.392 25.8384 93.2021 27.9206 93.2021 29.9217ZM100.666 29.9217C100.666 31.9768 99.2865 33.0044 97.5018 33.0044C95.7441 33.0044 94.3379 31.9768 94.3379 29.9217C94.3379 27.8665 95.7441 26.8389 97.5018 26.8389C99.2865 26.8389 100.666 27.8665 100.666 29.9217Z" fill="#FEFEFE"/>
<path d="M103.722 33.7883H107.724C110.103 33.7883 111.05 31.9765 111.05 29.8132C111.05 27.5687 109.995 26.0273 107.67 26.0273H103.722V33.7883ZM104.884 32.7877V27.0279H107.453C109.454 27.0279 109.887 28.4611 109.887 29.8402C109.887 31.2193 109.563 32.7877 107.67 32.7877H104.884Z" fill="#FEFEFE"/>
<path d="M112.997 26.0273H114.16V31.003C114.16 32.4092 115.106 33.0041 116.512 33.0041C117.946 33.0041 118.892 32.4092 118.892 31.003V26.0273H120.028V30.8678C120.028 32.95 118.892 34.0046 116.512 34.0046C114.16 34.0046 112.997 32.95 112.997 30.8678V26.0273Z" fill="#FEFEFE"/>
<path d="M128.708 28.84C128.546 27.7583 127.708 26.8389 126.058 26.8389C124.219 26.8389 123.057 27.8935 123.057 30.0028C123.057 31.4901 123.868 33.0044 126.004 33.0044C127.356 33.0044 128.384 32.3554 128.708 30.8411H129.871C129.682 32.5447 128.195 34.0049 125.977 34.0049C124.03 34.0049 121.921 32.9233 121.921 29.8946C121.921 27.6231 123.327 25.8384 125.977 25.8384C127.546 25.8384 129.682 26.5144 129.871 28.84H128.708Z" fill="#FEFEFE"/>
<path d="M133.954 27.0279H131.033V26.0273H138.037V27.0279H135.116V33.7883H133.954V27.0279Z" fill="#FEFEFE"/>
<path d="M140.038 31.2467C140.065 32.6258 141.363 33.0044 142.526 33.0044C143.77 33.0044 144.635 32.5177 144.635 31.6794C144.635 30.9763 144.067 30.6788 143.175 30.5166L141.417 30.2462C140.497 30.0839 139.118 29.7053 139.118 28.191C139.118 26.7848 140.227 25.8384 142.228 25.8384C143.797 25.8384 145.419 26.4063 145.527 28.2721H144.391C144.283 27.6772 143.932 26.8389 142.066 26.8389C141.228 26.8389 140.281 27.1905 140.281 28.1099C140.281 28.5966 140.579 28.9752 141.552 29.1375L143.445 29.462C144.067 29.5701 145.798 29.8676 145.798 31.463C145.798 33.4371 144.013 34.0049 142.444 34.0049C140.687 34.0049 138.875 33.383 138.875 31.2467H140.038Z" fill="#FEFEFE"/>
<path d="M132.818 19.9972V17.5365L135.387 17.239C136.307 17.1308 136.685 16.3466 136.793 16.1573L143.229 5.9897C143.743 5.20549 143.229 4.47537 142.553 4.42129L139.173 4.0427V1.52783H153.857C154.695 1.52783 155.209 2.06867 155.56 2.52837L164.133 15.265C164.782 16.2655 165.322 17.0768 166.188 17.1849L168.865 17.4553V19.9972H152.369V17.5094L154.452 17.239C155.479 17.1308 156.29 16.6982 155.479 15.5083L154.695 14.3456H142.959L142.067 15.7517C141.499 16.6441 142.067 17.1308 142.932 17.239L145.014 17.5094V19.9972H132.818ZM145.068 11.0735H152.478L148.746 5.36774L145.068 11.0735Z" fill="black"/>
<path d="M121.893 1.52783H102.991V4.01566L105.371 4.25904C106.236 4.39424 106.615 5.0162 106.615 5.85449V15.8058C106.615 16.4818 106.317 17.1308 105.506 17.239L102.991 17.5635V19.9972H121.893C130.574 19.9972 134.305 15.914 134.305 10.5056C134.305 5.63816 130.574 1.52783 121.893 1.52783ZM118.973 16.4548H114.105V5.04324H118.973C123.597 5.04324 125.544 6.09786 125.544 10.749C125.544 15.4272 123.597 16.4548 118.973 16.4548Z" fill="black"/>
<path d="M0.476562 19.9972H15.7551V17.5365L13.132 17.239C12.5371 17.1849 11.9422 16.8063 11.9422 15.5895V12.5878H23.7053V15.4272C23.7053 16.2655 23.5431 17.0768 22.5425 17.1849L19.8654 17.4553V19.9972H35.1439V17.4553L32.4668 17.1849C31.926 17.1038 31.331 16.6982 31.331 15.6436V6.01674C31.331 5.04324 31.7096 4.39424 32.4938 4.31311L35.1439 4.0427V1.52783H19.8654V3.98862L22.5425 4.31311C23.4349 4.42128 23.7053 5.12437 23.7053 6.01674V8.88315H11.9422V5.9897C11.9422 4.90803 12.3749 4.39424 13.1591 4.31311L15.7551 4.0427V1.52783H0.503604V4.0427L3.07256 4.31311C4.0731 4.42128 4.34351 5.15141 4.28943 6.09786V15.4813C4.28943 16.5359 3.99197 17.1308 3.01847 17.239L0.476562 17.5365V19.9972Z" fill="black"/>
<path d="M35.9014 10.668C35.9014 4.85409 40.7418 0.797852 51.5044 0.797852C62.2129 0.797852 67.0533 4.85409 67.0533 10.668C67.0533 16.6442 62.2129 20.6734 51.5044 20.6734C40.7418 20.6734 35.9014 16.6442 35.9014 10.668ZM51.4773 4.36735C47.1236 4.36735 44.6629 5.90872 44.6629 10.7221C44.6629 15.5896 47.1236 17.131 51.4773 17.131C55.831 17.131 58.2918 15.5896 58.2918 10.7221C58.2918 5.90872 55.831 4.36735 51.4773 4.36735Z" fill="black"/>
<path d="M67.9189 19.9972H80.1147V17.5365L77.4917 17.239C76.7345 17.1849 76.3018 16.563 76.3018 15.7247V6.3142L86.4424 19.2942C86.7669 19.7268 87.4159 19.9972 88.0109 19.9972H97.6106V5.9897C97.6106 5.3407 97.7729 4.42128 98.7734 4.31311L101.424 4.0427V1.52783H89.2007V3.98862L91.8778 4.31311C92.7972 4.42128 93.0406 5.20549 93.0406 6.07082V15.2109L82.9541 2.31204C82.5755 1.85233 82.0888 1.52783 81.3857 1.52783H67.9189V4.0427L70.4609 4.31311C71.3532 4.44832 71.6777 4.88099 71.6777 6.09786V15.4813C71.6777 16.59 71.3803 17.1038 70.4068 17.239L67.9189 17.5365V19.9972Z" fill="black"/>
</svg>
