<svg width="90" height="83" viewBox="0 0 90 83" fill="none" xmlns="http://www.w3.org/2000/svg">
<path d="M82.512 44.5748L77.9009 44.0675C77.1477 43.96 76.5136 43.4566 76.2409 42.7456C75.7951 41.6697 75.0881 40.394 75.9949 39.3642L78.8999 35.7368C80.5023 33.7309 80.337 30.8451 78.5156 29.0353L76.7635 27.2677C74.9421 25.4579 72.0563 25.3003 70.0467 26.8988L66.4193 29.7884C65.3894 30.7107 64.1137 29.9882 63.0378 29.5425C62.3039 29.2735 61.7851 28.6126 61.7005 27.8364L61.178 23.2253C60.9051 20.6737 58.7494 18.7371 56.1826 18.7371H53.6465C51.049 18.6987 48.851 20.6431 48.5744 23.2253L48.0518 27.8364C47.9672 28.6126 47.4485 29.2735 46.7145 29.5425C45.6386 29.9882 44.3629 30.6953 43.3331 29.7884L39.7671 26.8988C37.7613 25.2926 34.8678 25.4501 33.0503 27.2677L31.2982 29.0353C29.4691 30.8413 29.3116 33.7425 30.9293 35.7368L33.8189 39.3642C34.7258 40.394 34.0033 41.6698 33.573 42.7456C33.304 43.4834 32.6469 44.006 31.8668 44.0982L27.2557 44.6055C24.6965 44.8821 22.7599 47.0417 22.7676 49.6162V52.1062C22.7676 54.6769 24.7004 56.8364 27.2557 57.117L31.8668 57.6242C32.643 57.7126 33.3001 58.2313 33.573 58.9614C34.0033 60.0374 34.7258 61.3131 33.8189 62.3582L30.9293 65.9703C29.3154 67.9723 29.4729 70.8735 31.2982 72.6871L33.0503 74.4547C34.8718 76.2645 37.7575 76.4221 39.7671 74.8236L43.3945 71.9186C44.4244 71.0118 45.7001 71.7342 46.776 72.1799C47.51 72.4412 48.0287 73.0983 48.1133 73.8707L48.6359 78.4818C48.8895 81.0564 51.0605 83.0123 53.6466 83.0007H56.1366C58.6996 83.0084 60.8553 81.0756 61.1319 78.528L61.6545 73.9169C61.7391 73.1445 62.2578 72.4874 62.9918 72.2261C64.0677 71.7803 65.3434 71.0579 66.3732 71.9648L70.0006 74.8697C72.0103 76.4683 74.8961 76.3107 76.7174 74.5009L78.4696 72.7332C80.291 70.9195 80.4562 68.026 78.8539 66.0164L75.9489 62.4044C75.042 61.3592 75.7645 60.0988 76.1948 59.0076C76.4715 58.2813 77.1286 57.7664 77.901 57.6703L82.5121 57.1631C85.0828 56.8787 87.0232 54.6923 87.0002 52.1063V49.6163C87.0233 47.0303 85.0827 44.8514 82.512 44.5748ZM84.049 52.0755C84.0567 53.1322 83.2574 54.0237 82.2046 54.1352L77.5935 54.6424C73.5203 55.0728 71.0611 61.0058 73.6433 64.172L76.5483 67.7994C77.2092 68.6255 77.1439 69.8168 76.3946 70.5661L74.627 72.3182C73.8853 73.0675 72.698 73.1328 71.8756 72.4719L68.2482 69.5823C65.0665 67.0001 59.1336 69.444 58.7186 73.5171L58.2114 78.1282C58.0923 79.1772 57.2085 79.9726 56.1517 79.9726H53.6463C52.6242 79.9419 51.775 79.1734 51.6482 78.1589L51.141 73.5478C50.7107 69.49 44.8085 67.0154 41.6114 69.613L37.984 72.5026C37.1617 73.1635 35.9743 73.0982 35.2327 72.3489L33.4651 70.5967C32.7158 69.8474 32.6505 68.6562 33.3114 67.8301L36.2164 64.2027C38.7986 61.0363 36.3393 55.0881 32.2662 54.6731L27.6551 54.1659C26.6061 54.0467 25.8107 53.163 25.8107 52.1062V49.6162C25.803 48.5595 26.6022 47.668 27.6551 47.5566L32.2662 47.034C36.3393 46.619 38.7986 40.686 36.2164 37.5197L33.2038 33.8923C32.5428 33.0662 32.6082 31.8749 33.3575 31.1256L35.1251 29.358C35.8744 28.6241 37.0502 28.5588 37.8764 29.2043L41.5038 32.1093C44.5779 34.6915 50.6492 32.2169 51.0334 28.1591L51.5406 23.548C51.6636 22.4952 52.555 21.7036 53.6157 21.7036H56.1056C57.1585 21.7113 58.0423 22.5029 58.1653 23.548L58.6725 28.1591C59.0875 32.2323 65.0204 34.6915 68.2021 32.1093L71.8603 29.2043C72.6788 28.5472 73.8623 28.6049 74.6116 29.3427L76.3792 31.1103C77.1285 31.8596 77.1938 33.0508 76.5329 33.8769L73.628 37.5197C71.0611 40.686 73.505 46.6189 77.5781 47.0339L82.1892 47.5565C83.2421 47.668 84.0413 48.5594 84.0336 49.6162L84.049 52.0755Z" fill="black"/>
<path d="M54.8911 37.8728C47.7208 37.8805 41.9112 43.6905 41.9033 50.8606C42.595 68.0597 67.1874 68.0597 67.8642 50.8606C67.8565 43.6981 62.0543 37.8876 54.8911 37.8728ZM54.8911 60.9288C49.3616 60.9288 44.877 56.4522 44.8692 50.9226C45.3457 37.6584 64.436 37.6731 64.8501 50.9226C64.8079 56.4021 60.3697 60.8324 54.8901 60.8668L54.8911 60.9288Z" fill="black"/>
<path d="M25.1802 42.2226C25.6566 40.9315 24.5192 40.3014 23.474 39.9325C22.0023 39.2715 20.2885 39.4906 19.032 40.5012L16.1424 42.8068C15.6083 43.2371 14.8359 43.191 14.3594 42.6992L12.9607 41.3004C12.4804 40.8163 12.4381 40.0478 12.8685 39.5175L15.1433 36.6432C17.372 33.9995 15.3124 28.958 11.8387 28.5738L8.14978 28.1742C7.47348 28.0896 6.97012 27.5171 6.96628 26.8369V24.8542C6.97013 24.174 7.4735 23.6015 8.14978 23.5169L11.8233 23.0558C13.4987 22.8714 14.9127 21.7224 15.4354 20.1201C16.3883 18.5139 16.2769 16.4965 15.1587 15.0018L12.8531 12.1121C12.4343 11.5703 12.4804 10.8019 12.9607 10.3138L14.3594 8.93056C14.8436 8.45024 15.6044 8.40412 16.1424 8.82296L19.032 11.1439C21.7065 13.3111 26.7172 11.2822 27.0861 7.80857L27.5011 4.13503C27.6356 3.50485 28.1966 3.05906 28.8383 3.0745C29.9296 3.0745 31.9124 2.62877 32.143 4.27344L32.5426 7.91619C32.7117 9.52621 33.776 10.9019 35.2939 11.4668C36.9386 12.4966 39.0443 12.4236 40.612 11.2823L43.4863 8.96137C44.7159 7.94697 45.8687 9.74526 46.668 10.4984C47.1636 10.9787 47.2098 11.7587 46.7755 12.2967L44.4854 15.171C43.5247 16.4198 43.3249 18.0952 43.9628 19.5362C44.3163 20.5967 44.9772 21.688 46.2684 21.1962C47.5596 20.7043 47.206 19.3056 46.668 18.3065C46.4567 17.8454 46.522 17.3075 46.8371 16.9078L49.1273 14.0335C50.5145 12.3197 50.3722 9.83362 48.8045 8.28497L47.4212 6.88625C45.8612 5.34154 43.3903 5.21091 41.6727 6.57884L38.7984 8.88444C38.0299 9.53 37.1845 8.88444 36.4006 8.62315C35.9318 8.45024 35.5975 8.02755 35.5399 7.53183L35.1402 3.87364C34.9174 1.65264 33.0345 -0.0265374 30.8059 0.000317618H28.8384C26.6366 -0.00352472 24.7845 1.65264 24.5501 3.84285L24.1351 7.51639C24.0775 8.0236 23.7393 8.45014 23.259 8.62305C22.4905 8.91509 21.6298 9.51453 20.892 8.88434L18.0024 6.57874C16.2886 5.19153 13.8025 5.33377 12.2538 6.90152L10.8705 8.2848C9.30272 9.83334 9.16058 12.3195 10.5478 14.0334L12.8534 16.9076C13.1531 17.2919 13.2261 17.8106 13.0378 18.2602C12.6689 18.9826 12.4999 20.0893 11.5008 20.1508L7.82725 20.5658C5.64078 20.804 3.98855 22.6562 4.00006 24.8541V26.8369C3.99622 29.031 5.64471 30.8755 7.82725 31.1099L11.5008 31.5249C12.0042 31.5864 12.4307 31.9245 12.6074 32.401C12.8995 33.2003 13.4989 34.0302 12.838 34.7834L10.5479 37.6577C9.16064 39.3715 9.30288 41.8576 10.8706 43.4063C12.0234 44.6052 13.5143 46.2191 15.3126 46.0808C17.2186 46.3113 19.478 43.806 20.9074 42.8069C21.6452 42.1614 22.4445 42.8069 23.2591 43.0682C24.0237 43.3372 24.8612 42.9642 25.1802 42.2226Z" fill="black"/>
<path d="M29.8065 18.1987C33.2071 18.2025 36.2044 20.4389 37.1689 23.7013C37.5339 24.2892 38.2449 24.5621 38.9057 24.3661C39.5705 24.174 40.02 23.563 40.0124 22.8713C36.385 11.2361 19.4009 13.6491 19.2012 25.8531C19.1973 30.4642 22.1715 34.545 26.5636 35.9518C27.2591 35.9864 27.8893 35.5483 28.1045 34.8875C28.3158 34.2227 28.0545 33.5002 27.4704 33.1237C19.2626 30.4338 21.1684 18.2754 29.8065 18.1987Z" fill="black"/>
</svg>
