<svg width="32" height="32" viewBox="0 0 32 32" fill="none" xmlns="http://www.w3.org/2000/svg">
<path d="M16 0C24.8365 2.06162e-05 32 7.16348 32 16C32 24.8365 24.8365 32 16 32C7.16348 32 2.06175e-05 24.8365 0 16C0 7.16346 7.16346 0 16 0ZM16 10.1338C16 10.1338 10.6629 10.1338 9.33203 10.5C8.59779 10.7016 8.01949 11.2949 7.82324 12.0488C7.46732 13.413 7.4668 16.2566 7.4668 16.2666C7.4668 16.2666 7.46671 19.1177 7.82324 20.4844C8.01951 21.2384 8.59769 21.8326 9.33203 22.0342C10.6629 22.4003 16 22.4004 16 22.4004C16.0163 22.4004 21.3392 22.3997 22.668 22.0342C23.4022 21.8325 23.9805 21.2383 24.1768 20.4844C24.5334 19.1177 24.5332 16.2666 24.5332 16.2666C24.5332 16.2566 24.5328 13.413 24.1768 12.0488C23.9805 11.295 23.4021 10.7016 22.668 10.5C21.3392 10.1343 16.0163 10.1338 16 10.1338Z" fill="white"/>
<path d="M14.4004 19.2V13.8667L18.667 16.5335L14.4004 19.2Z" fill="white"/>
</svg>
