<svg width="142" height="32" viewBox="0 0 142 32" fill="none" xmlns="http://www.w3.org/2000/svg">
<path d="M135.71 0.790332C134.535 1.44291 134.307 1.63868 133.785 2.45441C133.409 3.04173 133.36 3.27013 133.36 4.65686C133.36 6.1741 133.377 6.22305 133.964 7.10403C134.29 7.59346 134.731 8.11552 134.943 8.24604C136.003 8.91493 136.476 9.06176 137.521 9.06176C139.723 9.06176 141.436 7.67503 141.909 5.50521C142.35 3.40065 141.142 1.32871 138.989 0.529301C137.847 0.105125 136.786 0.186698 135.71 0.790332ZM138.858 1.16556C141.567 2.07917 142.154 5.66835 139.886 7.51189C137.879 9.14333 135.302 8.5397 134.258 6.1741C133.817 5.16261 133.833 4.02059 134.323 3.05804C134.796 2.14443 135.057 1.8834 136.134 1.32871C137.08 0.85559 137.814 0.806647 138.858 1.16556Z" fill="black"/>
<path d="M135.955 2.42162C135.922 2.53582 135.906 3.62889 135.922 4.83616C135.971 6.89178 135.987 7.0223 136.297 7.0223C136.575 7.0223 136.624 6.89178 136.673 6.20657C136.771 4.60776 137.423 4.5425 138.369 6.04343C138.989 7.00598 139.397 7.29964 139.691 6.98967C139.756 6.94072 139.707 6.77758 139.609 6.64706C139.365 6.36972 139.055 5.84765 138.826 5.34191C138.679 5.01562 138.728 4.8851 139.152 4.46093C139.707 3.92255 139.772 3.4168 139.397 2.69896L139.136 2.20953H137.586C136.477 2.20953 136.02 2.27479 135.955 2.42162ZM138.728 3.0742C139.152 3.71046 138.908 4.13464 138.043 4.26515C137.162 4.39567 136.803 4.21621 136.738 3.61257C136.64 2.8458 136.787 2.69896 137.668 2.69896C138.353 2.69896 138.533 2.76422 138.728 3.0742ZM13.7106 2.30742C12.3402 2.66634 11.7855 3.00894 10.9371 3.93886C9.89301 5.12982 9.32201 6.30446 8.45734 9.0616C8.26157 9.64892 8.03317 10.3015 7.95159 10.5299C7.85371 10.7583 7.72319 11.1499 7.65793 11.4272C7.57636 11.6882 7.36427 12.3245 7.1685 12.8139C6.97273 13.3034 6.66275 14.3801 6.48329 15.1958C6.157 16.6478 6.157 16.7294 6.41804 17.5614C6.89115 18.9971 7.52742 19.5029 9.45252 19.976C10.3172 20.1881 11.5408 20.237 15.9783 20.237C18.9802 20.237 21.5415 20.3023 21.6557 20.3675C22.2594 20.7591 21.4436 23.2389 20.5464 23.6957C20.2364 23.8588 18.1318 23.9078 11.5408 23.9078H2.94306L2.69834 24.3809C2.42099 24.9029 1.99682 26.0123 1.78473 26.7628C1.71947 27.0238 1.49107 27.6601 1.2953 28.1495C1.09952 28.6389 0.887435 29.2752 0.822177 29.5362C0.756919 29.8136 0.610089 30.2051 0.495888 30.4009C0.381687 30.5967 0.349058 30.8414 0.398001 30.923C0.463259 31.0209 4.59082 31.0861 11.7692 31.0861C21.8352 31.0861 23.1567 31.0535 24.0376 30.8088C25.6365 30.3683 26.7458 29.3894 27.6268 27.6601C28.0999 26.7302 28.2631 26.2897 28.932 24.3156C29.1441 23.6794 29.6009 22.5537 29.9272 21.7869C30.9713 19.356 31.1834 18.5729 31.1834 17.0067C31.1834 15.6526 31.1507 15.5058 30.7103 14.8695C30.074 13.9559 29.2909 13.5644 27.4474 13.2218C26.028 12.9608 25.457 12.9444 21.46 13.075C17.1529 13.2381 16.1251 13.1892 15.7662 12.8302C15.5541 12.6182 15.8641 11.2477 16.3372 10.3015C17.0061 8.99634 16.3862 9.07792 25.4733 9.0616C33.1901 9.0616 33.5979 9.04529 33.7447 8.76794C33.9405 8.39271 34.381 7.20175 34.5768 6.53286C34.642 6.25552 34.8704 5.63557 35.0662 5.14613C35.262 4.6567 35.4741 4.02044 35.5393 3.7594C35.6046 3.48206 35.7514 3.09051 35.8656 2.87842C36.3387 2.01376 36.7466 2.04639 25.2449 2.0627C16.5004 2.0627 14.4284 2.11164 13.7106 2.30742ZM38.3944 2.65002C38.2475 2.99263 38.0681 3.44943 38.0028 3.67783C37.9212 3.90623 37.7092 4.49355 37.5134 4.98299C37.3176 5.47242 37.1055 6.10869 37.0403 6.36972C36.975 6.64706 36.8445 7.00598 36.7466 7.18544C36.5835 7.51173 36.2245 8.4906 36.1593 8.81689C36.143 8.91477 37.6928 9.01266 40.45 9.0616L44.7733 9.14317L44.8223 9.51841C44.8549 9.7305 44.7896 9.99153 44.6918 10.122C44.5775 10.2526 44.4307 10.5952 44.3655 10.8888C44.2839 11.1825 44.0718 11.8351 43.876 12.3245C43.2071 14.0538 43.044 14.5269 42.8972 15.0164C42.8319 15.2774 42.6035 15.9137 42.4077 16.4031C42.212 16.8925 41.9999 17.4799 41.9183 17.7083C41.8367 17.9367 41.6246 18.524 41.4289 19.0134C41.2331 19.5029 41.021 20.1228 40.9394 20.4001C40.8579 20.6612 40.6458 21.2974 40.45 21.7869C39.7811 23.5162 39.618 23.9893 39.4711 24.4788C39.4059 24.7398 39.1775 25.3761 38.9817 25.8655C38.7859 26.3549 38.5738 26.9422 38.4923 27.1706C38.4107 27.399 38.1986 27.9864 38.0028 28.4758C37.6439 29.3894 37.3666 30.3193 37.3013 30.7598C37.2687 30.9719 37.8397 31.0045 41.4615 31.0535L45.6543 31.0861L45.9153 30.6946C46.0622 30.4825 46.2416 30.1072 46.3232 29.8462C46.3885 29.5852 46.6169 28.9652 46.8126 28.4758C47.0084 27.9864 47.2205 27.3501 47.3021 27.0891C47.3836 26.8117 47.5957 26.1918 47.7915 25.7023C47.9873 25.2129 48.183 24.6256 48.232 24.3972C48.2809 24.1688 48.3788 23.9078 48.4441 23.8262C48.5093 23.7283 48.6562 23.402 48.7377 23.092C48.8356 22.7821 49.064 22.1132 49.2598 21.6237C49.4556 21.1343 49.6677 20.498 49.7492 20.237C49.8308 19.9597 50.0429 19.3397 50.2387 18.8503C50.9076 17.1209 51.0707 16.6478 51.2175 16.1584C51.2828 15.881 51.5112 15.2611 51.707 14.7717C52.3759 13.0423 52.539 12.5692 52.6858 12.0798C52.8 11.6393 53.0611 10.9704 53.6484 9.50209L53.8278 9.0616H62.8008L63.1108 8.36008C63.4534 7.5933 63.747 6.77758 63.9428 6.04343C64.0244 5.76608 64.2365 5.14613 64.4322 4.6567C64.628 4.16727 64.8238 3.57995 64.8727 3.35154C64.9217 3.12314 65.0359 2.84579 65.1175 2.74791C65.2153 2.63371 65.248 2.42162 65.1827 2.2911C65.1011 2.07902 63.5186 2.04639 51.8701 2.04639H38.6554L38.3944 2.65002ZM68.2009 2.19322C67.9725 2.34005 67.5809 3.23734 67.4178 4.00412C67.3688 4.23252 67.2546 4.49356 67.1731 4.60776C67.0752 4.72196 66.9447 5.04825 66.8794 5.34191C66.7978 5.63557 66.5858 6.28814 66.39 6.77758C65.7211 8.50691 65.5579 8.98003 65.4111 9.46946C65.3459 9.73049 65.1174 10.3668 64.9217 10.8562C64.2528 12.5855 64.0896 13.0586 63.9428 13.5481C63.8776 13.8091 63.6491 14.4454 63.4534 14.9348C63.2576 15.4242 63.0455 16.0116 62.9639 16.24C62.8824 16.4684 62.6703 17.0557 62.4745 17.5451C62.2787 18.0346 62.0666 18.6545 61.9851 18.9318C61.9035 19.1929 61.6914 19.8291 61.4956 20.3186C60.8267 22.0479 60.6636 22.521 60.5168 23.0105C60.4515 23.2715 60.2231 23.9078 60.0273 24.3972C59.2932 26.3223 59.179 26.616 59.0974 27.0075C59.0485 27.2359 58.9506 27.4806 58.8853 27.5785C58.8201 27.6601 58.6732 28.0027 58.5917 28.3127C58.4938 28.6226 58.2654 29.2915 58.0859 29.781C57.8901 30.2704 57.7759 30.7761 57.8249 30.874C57.8738 31.0372 58.8853 31.0861 62.0503 31.0861H66.2268L66.4715 30.6946C66.6184 30.4825 66.7978 30.1072 66.8794 29.8462C66.9447 29.5852 67.1731 28.9652 67.3688 28.4758C67.5646 27.9864 67.793 27.3501 67.8583 27.0891C67.9398 26.8117 68.103 26.306 68.2498 25.9471C68.3803 25.5881 68.6414 24.8866 68.8371 24.3972C69.0329 23.9078 69.3592 22.9778 69.5713 22.3579C69.7834 21.7216 70.1097 20.808 70.3054 20.3186C71.0233 18.4424 71.1538 18.0998 71.2843 17.6267C71.3496 17.3493 71.578 16.7294 71.7737 16.24C72.4263 14.5269 72.6058 14.0375 72.7526 13.5481C72.8342 13.2707 72.9973 12.765 73.1442 12.4061C73.2747 12.0471 73.5357 11.3456 73.7315 10.8562C73.9273 10.3668 74.2535 9.43683 74.4656 8.81689C74.6777 8.18062 75.004 7.26701 75.1998 6.77758C75.9176 4.90142 76.0481 4.55881 76.1787 4.08569C76.2439 3.80835 76.4071 3.36786 76.5213 3.09051C76.9454 2.04639 76.9454 2.04639 72.4753 2.04639C70.2565 2.04639 68.3314 2.11164 68.2009 2.19322ZM82.9491 2.43793C82.8023 2.65002 82.6229 3.02525 82.5413 3.28629C82.476 3.54732 82.2476 4.16727 82.0519 4.6567C81.8561 5.14613 81.5298 6.05974 81.3177 6.69601C80.8772 7.98485 80.5999 8.73531 80.0941 10.0405C79.8983 10.5299 79.6863 11.1499 79.6047 11.4272C79.5231 11.6882 79.311 12.3245 79.1153 12.8139C78.5769 14.217 78.3158 14.9348 77.8917 16.1584C77.4349 17.4635 77.1575 18.2303 76.6681 19.5029C76.4723 19.9923 76.2602 20.6122 76.1787 20.8896C76.0971 21.1506 75.885 21.7869 75.6892 22.2763C75.0203 24.0056 74.8572 24.4788 74.7103 24.9682C74.6451 25.2292 74.4167 25.8655 74.2209 26.3549C73.4868 28.2637 73.3726 28.5737 73.291 28.9652C73.242 29.1936 73.0952 29.5199 72.981 29.6994C72.8505 29.8788 72.7526 30.2541 72.7526 30.5477V31.0861L76.8475 31.0535L80.9425 31.0045L81.1709 30.352C81.3177 29.993 81.4808 29.5199 81.5624 29.2915C81.644 29.0631 81.8561 28.4758 82.0519 27.9864C82.2476 27.4969 82.4597 26.8607 82.5413 26.5996C82.6229 26.3223 82.8349 25.7023 83.0307 25.2129C83.2265 24.7235 83.5528 23.7936 83.7649 23.1736C83.977 22.5373 84.3196 21.6237 84.499 21.1343C84.6948 20.6449 84.8906 20.0902 84.9395 19.9107C85.1516 19.1766 85.1027 19.1766 90.3885 19.1766C93.1457 19.1766 95.446 19.2418 95.495 19.3234C95.5439 19.3887 95.4297 19.8455 95.2503 20.3349C95.0708 20.8243 94.7445 21.7216 94.5324 22.3579C94.3203 22.9778 93.994 23.9078 93.7983 24.3972C93.2762 25.7839 92.9989 26.5018 92.5747 27.7417C92.3626 28.3616 92.0363 29.2915 91.8568 29.781C91.6611 30.2704 91.5142 30.7598 91.5142 30.874C91.5142 31.0372 92.4442 31.0861 95.756 31.0861H99.9978L100.259 30.4662C100.406 30.1399 100.585 29.6341 100.65 29.3731C100.732 29.0958 100.944 28.4758 101.14 27.9864C101.792 26.2734 101.972 25.7839 102.119 25.2945C102.265 24.8051 102.429 24.3646 103.098 22.6026C103.293 22.1132 103.522 21.4443 103.62 21.1343C103.701 20.8243 103.848 20.4817 103.913 20.4001C103.978 20.3023 104.076 20.0575 104.125 19.8291C104.174 19.6007 104.37 19.0134 104.549 18.524C105.202 16.8599 105.398 16.3215 105.545 15.8321C105.61 15.5548 105.838 14.9348 106.034 14.4454C106.703 12.716 106.866 12.2429 107.013 11.7535C107.078 11.4761 107.307 10.8562 107.502 10.3668C107.698 9.87732 107.91 9.29 107.992 9.0616C108.073 8.8332 108.285 8.24588 108.481 7.75645C108.677 7.26701 108.905 6.63075 108.971 6.36972C109.118 5.88028 109.33 5.30928 109.966 3.67783C110.618 1.99744 110.928 2.12796 106.311 2.07902C104.076 2.0627 102.151 2.11164 102.004 2.1769C101.76 2.32373 101.45 3.00894 101.14 4.08569C100.993 4.57513 100.813 5.06456 100.161 6.77758C99.9651 7.26701 99.753 7.88696 99.6715 8.16431C99.5899 8.42534 99.3778 9.0616 99.182 9.55104C98.9863 10.0405 98.7742 10.6441 98.6926 10.8725C98.6273 11.1009 98.4479 11.5251 98.301 11.8024L98.0237 12.3245L93.0152 12.2919L88.0066 12.2429L88.0229 11.7535C88.0393 11.4761 88.1698 10.9704 88.3003 10.6115C89.0344 8.75163 89.2628 8.11536 89.3934 7.67487C89.5239 7.18544 89.687 6.76126 90.3722 4.98299C90.568 4.49355 90.7964 3.82466 90.8943 3.51469C90.9759 3.20471 91.139 2.84579 91.2206 2.74791C91.3185 2.63371 91.3511 2.42162 91.2858 2.2911C91.2043 2.07902 90.6169 2.04639 87.2072 2.04639H83.1939L82.9491 2.43793ZM116.524 2.24216C116.426 2.35636 116.312 2.60108 116.263 2.78054C116.214 2.96 116.019 3.51469 115.823 4.00412C115.154 5.73345 114.991 6.20657 114.844 6.69601C114.697 7.18544 114.518 7.67487 113.865 9.38789C113.669 9.87732 113.457 10.4973 113.376 10.7746C113.294 11.0357 113.082 11.6719 112.886 12.1613C112.152 14.0865 112.038 14.3801 111.956 14.7717C111.907 15.0001 111.793 15.2611 111.712 15.3753C111.614 15.4895 111.483 15.8158 111.418 16.1094C111.336 16.4031 111.124 17.0557 110.928 17.5451C110.26 19.2745 110.096 19.7476 109.95 20.237C109.884 20.498 109.656 21.1343 109.46 21.6237C108.791 23.3531 108.628 23.8262 108.481 24.3156C108.416 24.5766 108.188 25.2129 107.992 25.7023C107.192 27.758 106.197 30.6619 106.197 30.9067C106.197 31.0372 110.308 31.0861 119.706 31.0861C132.855 31.0861 133.23 31.0698 133.508 30.7761C133.671 30.5967 133.85 30.2214 133.932 29.9115C134.013 29.6178 134.225 28.9652 134.421 28.4758C135.106 26.7138 135.253 26.2734 135.384 25.7839C135.465 25.5066 135.612 25.0987 135.726 24.854C136.2 23.8588 136.607 23.9078 126.77 23.9078C121.386 23.9078 117.764 23.8425 117.699 23.7609C117.65 23.6794 117.732 23.2878 117.878 22.8963C118.009 22.5047 118.188 21.9663 118.27 21.7053C118.417 21.2159 118.596 20.7264 119.249 19.0134C119.445 18.524 119.657 17.8877 119.738 17.6267C119.82 17.3493 120.032 16.7294 120.228 16.24C120.88 14.5269 121.06 14.0375 121.207 13.5481C121.353 13.0586 121.533 12.5692 122.185 10.8562C122.381 10.3668 122.61 9.73049 122.675 9.46946C122.822 8.98003 122.985 8.50691 123.654 6.77758C123.849 6.28814 124.062 5.65188 124.143 5.39085C124.225 5.1135 124.437 4.49355 124.649 4.00412C124.845 3.51469 125.008 2.87842 125.024 2.61739L125.04 2.12796L120.864 2.07902C117.634 2.04639 116.638 2.09533 116.524 2.24216Z" fill="black"/>
</svg>
