<svg width="83" height="83" viewBox="0 0 83 83" fill="none" xmlns="http://www.w3.org/2000/svg">
<path d="M53.8451 83C53.7165 83 53.588 82.9845 53.4594 82.9533C53.2801 82.9065 49.0366 81.8232 43.9708 78.1915V78.1876C40.9937 76.0483 38.3479 73.4803 36.1228 70.5657C33.4302 67.0469 31.2908 62.9826 29.7673 58.4862C26.6693 56.3312 24.2105 53.3776 22.6557 49.9407C18.0381 49.7809 10.0655 50.3888 2.44712 55.1973L2.45102 55.1934C1.89768 55.5441 1.1924 55.5207 0.662392 55.1389C0.132387 54.757 -0.109163 54.0945 0.046706 53.4594C0.0934678 53.2801 1.17674 49.0366 4.80847 43.9708H4.81237C6.95164 40.9937 9.51966 38.3479 12.4343 36.1228C15.953 33.4302 20.0174 31.2869 24.5138 29.7673C26.6688 26.6693 29.6224 24.2105 33.0593 22.6557C33.2191 18.0381 32.6112 10.0655 27.8027 2.44712L27.8066 2.45102C27.4559 1.89768 27.4792 1.1924 27.8611 0.662392C28.243 0.132387 28.9055 -0.109163 29.5406 0.046706C29.7199 0.0934678 33.9634 1.17674 39.0291 4.80847V4.81237C42.0063 6.95164 44.6521 9.51966 46.8772 12.4343C49.5698 15.953 51.7092 20.0174 53.2288 24.5138H53.2327C56.3307 26.6688 58.7895 29.6224 60.3443 33.0593C64.9619 33.2191 72.9345 32.6112 80.5529 27.8027L80.549 27.8066C81.1023 27.4559 81.8076 27.4792 82.3376 27.8611C82.8676 28.243 83.1092 28.9055 82.9533 29.5406C82.9065 29.7199 81.8232 33.9634 78.1915 39.0291H78.1876C76.0484 42.0063 73.4803 44.6521 70.5657 46.8772C67.047 49.5698 62.9826 51.7092 58.4862 53.2288V53.2327C56.3312 56.3307 53.3776 58.7895 49.9407 60.3443C49.7809 64.9619 50.3888 72.9345 55.1973 80.5529L55.1934 80.549C55.5052 81.0439 55.5246 81.6634 55.2441 82.1739C54.9635 82.6805 54.4257 83 53.8451 83ZM21.3934 46.7257C22.3014 46.7257 23.1197 46.7569 23.8406 46.7997C24.4601 46.8387 25.0018 47.2362 25.2278 47.8129C26.5643 51.2186 28.9257 54.1255 31.9847 56.1284C32.2886 56.3272 32.5185 56.6272 32.6315 56.974C35.1839 64.8376 39.5872 71.0726 45.7126 75.5107C47.1738 76.5667 48.7208 77.502 50.3341 78.3008C46.7569 70.6554 46.5425 63.2356 46.7997 59.1596C46.8387 58.54 47.2361 57.9983 47.8128 57.7724C51.2186 56.4358 54.1255 54.0744 56.1284 51.0155C56.3271 50.7115 56.6272 50.4816 56.974 50.3686C66.8366 47.1656 72.5409 41.4217 75.5965 37.1669C76.6213 35.7446 77.5293 34.2365 78.3087 32.6623C70.6593 36.2433 63.2435 36.4538 59.1644 36.2006C58.5449 36.1616 58.0032 35.7641 57.7772 35.1874C56.4407 31.7816 54.0793 28.8748 51.0203 26.8718C50.7125 26.6731 50.4865 26.3731 50.3735 26.0263C47.1665 16.1637 41.4227 10.4593 37.1678 7.40376C35.7454 6.37897 34.2374 5.47099 32.6632 4.69159C36.2442 12.3409 36.4547 19.7568 36.2014 23.8358C36.1624 24.4554 35.765 24.9971 35.1883 25.223C31.7825 26.5596 28.8756 28.921 26.8727 31.9799C26.674 32.2877 26.3739 32.5138 26.0271 32.6268C18.1635 35.1791 11.9286 39.5825 7.49042 45.7078C6.4344 47.169 5.49918 48.716 4.70034 50.3332C11.0013 47.3834 17.1428 46.7257 21.3934 46.7257Z" fill="black"/>
<path d="M41.5 53.2476C36.7499 53.2476 32.4635 50.3835 30.6475 45.9958C28.8278 41.6042 29.8331 36.5541 33.1921 33.1911C36.555 29.8321 41.6051 28.8268 45.9968 30.6465C50.3845 32.4624 53.2486 36.7488 53.2486 41.499C53.2408 47.9832 47.9838 53.2406 41.5 53.2476ZM41.5 32.9452C38.0396 32.9452 34.9184 35.026 33.5974 38.2253C32.2725 41.4206 33.0051 45.103 35.4523 47.5463C37.8955 49.9934 41.5779 50.7261 44.7733 49.4012C47.9725 48.0802 50.0534 44.9589 50.0534 41.4986C50.0495 36.7757 46.2228 32.9491 41.5 32.9452Z" fill="black"/>
</svg>
