<svg width="100" height="83" viewBox="0 0 100 83" fill="none" xmlns="http://www.w3.org/2000/svg">
<path d="M91.36 73.05H87.98C90.87 70.74 92.74 67.19 92.74 63.2C92.74 56.72 87.82 51.37 81.52 50.68V41.52C81.52 41.04 81.27 40.6 80.86 40.35L57.5 25.97C57.28 25.84 57.03 25.77 56.78 25.77H52.72V22.01C52.72 21.25 52.1 20.63 51.34 20.63H34.79V19.14C34.79 13.55 30.24 9 24.65 9H12.04C9.81 9 8 10.81 8 13.04C8 15.27 9.81 17.08 12.04 17.08H23.87C25.45 17.08 26.73 18.36 26.73 19.94V43.11C20.64 45.71 16.37 51.75 16.37 58.77C16.37 64.74 19.46 70.01 24.13 73.05H9.38C8.62 73.05 8 73.67 8 74.43C8 75.19 8.62 75.81 9.38 75.81H91.36C92.12 75.81 92.74 75.19 92.74 74.43C92.74 73.67 92.12 73.05 91.36 73.05ZM89.98 63.21C89.98 68.64 85.56 73.06 80.13 73.06C74.7 73.06 70.28 68.64 70.28 63.21C70.28 57.78 74.7 53.37 80.13 53.37C85.56 53.36 89.98 57.78 89.98 63.21ZM78.76 42.29V50.68C72.91 51.32 68.25 55.98 67.61 61.83H50.17C50.35 60.84 50.45 59.82 50.45 58.78C50.45 53.41 47.95 48.62 44.06 45.49H50.07C50.83 45.49 51.45 44.87 51.45 44.11C51.45 43.35 50.83 42.73 50.07 42.73H41V40.17H54.01C54.77 40.17 55.39 39.55 55.39 38.79C55.39 38.03 54.78 37.41 54.02 37.41H41.01V34.82H56.77C57.53 34.82 58.15 34.2 58.15 33.44C58.15 32.68 57.53 32.06 56.77 32.06H39.63C38.87 32.06 38.25 32.68 38.25 33.44V42.44C37.14 42.11 35.98 41.89 34.79 41.8V28.53H56.38L78.76 42.29ZM49.96 23.39V25.76H34.79V23.39H49.96ZM23.86 14.32H12.04C11.34 14.32 10.76 13.75 10.76 13.04C10.76 12.34 11.33 11.76 12.04 11.76H24.66C28.73 11.76 32.04 15.07 32.04 19.14V27.14V41.79C31.17 41.86 30.32 42 29.49 42.19V19.94C29.48 16.84 26.96 14.32 23.86 14.32ZM19.13 58.77C19.13 52.72 22.92 47.54 28.25 45.47C28.48 45.44 28.69 45.37 28.88 45.24C30.31 44.76 31.82 44.49 33.41 44.49C41.28 44.49 47.69 50.9 47.69 58.77C47.69 66.64 41.28 73.05 33.41 73.05C25.54 73.05 19.13 66.65 19.13 58.77ZM42.69 73.05C45.76 71.05 48.15 68.08 49.43 64.58H67.61C67.98 68 69.73 71.01 72.29 73.05H42.69Z" fill="black"/>
<path d="M33.4102 50.6C28.9002 50.6 25.2402 54.27 25.2402 58.77C25.2402 63.28 28.9102 66.94 33.4102 66.94C37.9102 66.94 41.5802 63.27 41.5802 58.77C41.5802 54.27 37.9202 50.6 33.4102 50.6ZM33.4102 64.19C30.4302 64.19 28.0002 61.76 28.0002 58.78C28.0002 55.8 30.4302 53.37 33.4102 53.37C36.3902 53.37 38.8202 55.8 38.8202 58.78C38.8202 61.76 36.4002 64.19 33.4102 64.19Z" fill="black"/>
<path d="M74.9707 63.2101C74.9707 66.0601 77.2907 68.37 80.1307 68.37C82.9807 68.37 85.2907 66.0501 85.2907 63.2101C85.2907 60.3601 82.9707 58.05 80.1307 58.05C77.2907 58.05 74.9707 60.3601 74.9707 63.2101ZM82.5407 63.2101C82.5407 64.5301 81.4607 65.61 80.1407 65.61C78.8207 65.61 77.7407 64.5301 77.7407 63.2101C77.7407 61.8901 78.8207 60.8101 80.1407 60.8101C81.4607 60.8101 82.5407 61.8801 82.5407 63.2101Z" fill="black"/>
</svg>
