<svg width="100" height="83" viewBox="0 0 100 83" fill="none" xmlns="http://www.w3.org/2000/svg">
<path d="M93.496 45.6994H90.1952C89.996 44.3986 89.496 43.0978 88.6952 42.0002L90.996 39.6994C91.5976 39.0978 91.5976 38.1994 90.996 37.5978C90.3944 36.9962 89.496 36.9962 88.8944 37.5978L86.5936 39.8986C85.492 39.0978 84.2928 38.5978 82.8944 38.3986V35.0978C82.8944 34.297 82.1952 33.5978 81.3944 33.5978C80.5936 33.5978 79.8944 34.297 79.8944 35.0978V38.3009H74.496V35.1993C74.496 34.3985 73.7968 33.6993 72.996 33.6993C72.1952 33.6993 71.496 34.3985 71.496 35.1993V38.3009H65.996V35.1993C65.996 34.3985 65.2968 33.6993 64.496 33.6993C63.6952 33.6993 62.996 34.3008 62.996 35.1016V38.3008H57.5976V35.1992C57.5976 34.3984 56.8984 33.6992 56.0976 33.6992C55.2968 33.6992 54.5976 34.3984 54.5976 35.1992V38.3008H49.1992V38.1015C49.1992 36.1015 48.5 34.4999 47.1992 33.4023C46.3008 32.7031 44.6992 31.9023 42.1992 32.4023L39.1992 33.0039L39.1953 29.3008C39.1953 24.8008 35.2969 21 30.3945 21C25.5937 21 21.5937 24.6992 21.5937 29.3008V36.4024L18.996 36.9024C16.2968 37.4024 14.7968 39.4024 14.7968 42.504V43.004H11.3984C7.8984 43.004 5 45.9024 5 49.4024V55.2032C5 58.7032 7.8984 61.6016 11.3984 61.6016H42.2964C45.5972 61.6016 48.2964 59.3008 48.9956 56.3008H54.5972V59.3008C54.5972 60.1016 55.2964 60.8008 56.0972 60.8008C56.898 60.8008 57.5972 60.1016 57.5972 59.3008V56.1992H62.9956V59.3008C62.9956 60.1016 63.6948 60.8008 64.4956 60.8008C65.2964 60.8008 65.9956 60.1016 65.9956 59.3008V56.1992H71.394V59.3008C71.394 60.1016 72.0932 60.8008 72.894 60.8008C73.6948 60.8008 74.394 60.1016 74.394 59.3008V56.1992H79.7924L79.7963 59.3008C79.7963 60.1016 80.4955 60.8008 81.2963 60.8008C82.0971 60.8008 82.7963 60.1016 82.7963 59.3008V56C84.0971 55.8008 85.3979 55.3008 86.4955 54.5L88.7963 56.8008C89.0971 57.1016 89.4955 57.1992 89.8979 57.1992C90.2963 57.1992 90.6987 57.0977 90.9995 56.8008C91.6011 56.1992 91.6011 55.3008 90.9995 54.6992L88.6987 52.3984C89.4995 51.2968 89.9995 50.0976 90.1987 48.6992H93.4995C94.3003 48.6992 94.9995 48 94.9995 47.1992C94.9956 46.4023 94.2968 45.6994 93.496 45.6994ZM24.598 29.3014C24.598 26.403 27.1996 24.0006 30.3988 24.0006C33.598 24.0006 36.1996 26.399 36.1996 29.3014V33.5006L24.5976 35.8014L24.598 29.3014ZM7.99601 55.1024V49.3016C7.99601 47.4032 9.49601 45.9032 11.3944 45.9032H14.7928V58.4032H11.3944C9.49601 58.5008 7.99601 57.0009 7.99601 55.1024ZM42.297 58.5008H17.797V42.5008C17.797 40.5008 18.6954 40.0008 19.5978 39.8992L42.6958 35.3015C43.395 35.1999 44.4966 35.1022 45.1958 35.6999C45.7974 36.1999 46.0942 37.0007 46.0942 38.0983V54.6963C46.0982 56.8018 44.3947 58.5008 42.297 58.5008ZM49.0978 41.3018H81.3988C83.0004 41.3018 84.5004 41.9033 85.598 43.1026C86.6996 44.2042 87.3988 45.7042 87.3988 47.3018C87.3988 48.9034 86.7972 50.4034 85.598 51.501C84.4964 52.6026 82.9964 53.3018 81.3988 53.3018H49.0978V41.3018Z" fill="black"/>
<path d="M30.7969 51.1024H25.7969C24.9961 51.1024 24.2969 51.8016 24.2969 52.6024C24.2969 53.4032 24.9961 54.1024 25.7969 54.1024H30.7969C31.5977 54.1024 32.2969 53.4032 32.2969 52.6024C32.2969 51.8016 31.5977 51.1024 30.7969 51.1024Z" fill="black"/>
<path d="M30.7969 44.0004H25.7969C24.9961 44.0004 24.2969 44.6996 24.2969 45.5004C24.2969 46.3011 24.9961 47.0004 25.7969 47.0004H30.7969C31.5977 47.0004 32.2969 46.3011 32.2969 45.5004C32.2969 44.6996 31.5977 44.0004 30.7969 44.0004Z" fill="black"/>
<path d="M81.3945 48.6993C82.1953 48.6993 82.8945 48.0001 82.8945 47.1993C82.8945 46.3986 82.1953 45.6993 81.3945 45.6993C80.5938 45.6993 79.8945 46.3986 79.8945 47.1993C79.8945 48.1017 80.5977 48.6993 81.3945 48.6993Z" fill="black"/>
</svg>
