<svg width="112" height="25" viewBox="0 0 112 25" fill="none" xmlns="http://www.w3.org/2000/svg">
<path d="M106.916 0.416067C105.988 0.931609 105.807 1.08627 105.395 1.7307C105.098 2.19469 105.06 2.37513 105.06 3.47066C105.06 4.66929 105.072 4.70796 105.536 5.40394C105.794 5.7906 106.142 6.20303 106.31 6.30614C107.148 6.83457 107.521 6.95057 108.346 6.95057C110.086 6.95057 111.439 5.85504 111.813 4.14086C112.161 2.47824 111.207 0.841389 109.506 0.209849C108.604 -0.125253 107.766 -0.0608104 106.916 0.416067ZM109.403 0.712504C111.543 1.43426 112.007 4.26975 110.215 5.72616C108.63 7.01501 106.593 6.53814 105.768 4.66929C105.42 3.8702 105.433 2.968 105.82 2.20758C106.194 1.48582 106.4 1.2796 107.251 0.841389C107.998 0.467621 108.578 0.428955 109.403 0.712504Z" fill="#5A5D5D"/>
<path d="M107.109 1.70464C107.083 1.79486 107.07 2.65839 107.083 3.61215C107.121 5.23611 107.134 5.33922 107.379 5.33922C107.598 5.33922 107.637 5.23611 107.676 4.69479C107.753 3.43171 108.269 3.38015 109.016 4.5659C109.506 5.32633 109.828 5.55832 110.06 5.31344C110.112 5.27477 110.073 5.14589 109.996 5.04278C109.802 4.82367 109.557 4.41124 109.377 4.01169C109.261 3.75392 109.3 3.65081 109.635 3.31571C110.073 2.89039 110.124 2.49084 109.828 1.92375L109.622 1.53709H108.397C107.521 1.53709 107.16 1.58864 107.109 1.70464ZM109.3 2.22018C109.635 2.72284 109.441 3.05794 108.758 3.16105C108.062 3.26416 107.779 3.12238 107.727 2.64551C107.65 2.03974 107.766 1.92375 108.462 1.92375C109.003 1.92375 109.145 1.9753 109.3 2.22018ZM10.5345 1.61442C9.45183 1.89797 9.01362 2.16863 8.34342 2.90328C7.51855 3.84414 7.06745 4.77212 6.38435 6.95029C6.22969 7.41428 6.04925 7.92982 5.98481 8.11026C5.90748 8.2907 5.80437 8.60002 5.75281 8.81913C5.68837 9.02535 5.52082 9.528 5.36616 9.91466C5.21149 10.3013 4.96661 11.152 4.82484 11.7964C4.56706 12.9435 4.56706 13.0079 4.77328 13.6652C5.14705 14.7994 5.6497 15.199 7.17056 15.5727C7.85365 15.7403 8.82029 15.779 12.326 15.779C14.6975 15.779 16.721 15.8305 16.8112 15.8821C17.2881 16.1914 16.6437 18.1505 15.9348 18.5113C15.6899 18.6402 14.0273 18.6789 8.82029 18.6789H2.02802L1.83469 19.0527C1.61558 19.4651 1.28048 20.3415 1.11293 20.9344C1.06137 21.1406 0.880934 21.6433 0.726271 22.0299C0.571608 22.4166 0.404057 22.9192 0.352502 23.1254C0.300948 23.3445 0.184951 23.6539 0.094731 23.8085C0.00451104 23.9632 -0.0212662 24.1565 0.0173996 24.221C0.0689538 24.2983 3.32976 24.3499 9.00073 24.3499C16.953 24.3499 17.997 24.3241 18.6929 24.1307C19.956 23.7828 20.8324 23.0094 21.5284 21.6433C21.9022 20.9086 22.0311 20.5606 22.5595 19.0011C22.7271 18.4984 23.0879 17.6091 23.3457 17.0034C24.1706 15.083 24.3381 14.4643 24.3381 13.227C24.3381 12.1573 24.3124 12.0413 23.9644 11.5386C23.4617 10.8169 22.8431 10.5075 21.3866 10.2369C20.2653 10.0307 19.8142 10.0178 16.6565 10.1209C13.254 10.2498 12.442 10.2111 12.1584 9.92755C11.9909 9.75999 12.2358 8.67735 12.6095 7.92982C13.138 6.89873 12.6482 6.96318 19.8271 6.95029C25.9234 6.95029 26.2456 6.9374 26.3616 6.71829C26.5163 6.42186 26.8643 5.48099 27.019 4.95256C27.0705 4.73345 27.2509 4.24369 27.4056 3.85703C27.5603 3.47037 27.7278 2.96772 27.7794 2.7615C27.8309 2.5424 27.9469 2.23307 28.0371 2.06552C28.4109 1.38243 28.7331 1.4082 19.6467 1.42109C12.7384 1.42109 11.1016 1.45976 10.5345 1.61442ZM30.0349 1.88508C29.9189 2.15574 29.7771 2.51662 29.7256 2.69706C29.6611 2.8775 29.4936 3.34149 29.3389 3.72815C29.1842 4.1148 29.0167 4.61746 28.9651 4.82367C28.9136 5.04278 28.8105 5.32633 28.7331 5.4681C28.6042 5.72587 28.3207 6.49919 28.2691 6.75696C28.2563 6.83429 29.4807 6.91162 31.6588 6.95029L35.0743 7.01473L35.113 7.31117C35.1388 7.47872 35.0872 7.68494 35.0099 7.78804C34.9196 7.89115 34.8036 8.16181 34.7521 8.39381C34.6877 8.6258 34.5201 9.14134 34.3654 9.528C33.837 10.8942 33.7081 11.268 33.5921 11.6546C33.5406 11.8608 33.3601 12.3635 33.2055 12.7501C33.0508 13.1368 32.8833 13.6008 32.8188 13.7812C32.7544 13.9617 32.5868 14.4257 32.4322 14.8123C32.2775 15.199 32.1099 15.6887 32.0455 15.9078C31.9811 16.1141 31.8135 16.6167 31.6588 17.0034C31.1304 18.3696 31.0015 18.7433 30.8855 19.13C30.834 19.3362 30.6535 19.8389 30.4989 20.2255C30.3442 20.6122 30.1767 21.0762 30.1122 21.2566C30.0478 21.437 29.8802 21.901 29.7256 22.2877C29.442 23.0094 29.2229 23.7441 29.1713 24.0921C29.1456 24.2596 29.5967 24.2854 32.4579 24.3241L35.7703 24.3499L35.9765 24.0405C36.0925 23.873 36.2343 23.5765 36.2987 23.3703C36.3503 23.1641 36.5307 22.6743 36.6854 22.2877C36.84 21.901 37.0076 21.3984 37.072 21.1922C37.1365 20.973 37.304 20.4833 37.4587 20.0966C37.6134 19.71 37.768 19.246 37.8067 19.0655C37.8454 18.8851 37.9227 18.6789 37.9742 18.6144C38.0258 18.5371 38.1418 18.2793 38.2062 18.0345C38.2836 17.7896 38.464 17.2611 38.6187 16.8745C38.7733 16.4878 38.9409 15.9852 39.0053 15.779C39.0698 15.5598 39.2373 15.0701 39.392 14.6834C39.9204 13.3172 40.0493 12.9435 40.1653 12.5568C40.2169 12.3377 40.3973 11.8479 40.552 11.4613C41.0804 10.0951 41.2093 9.72133 41.3253 9.33467C41.4155 8.98668 41.6217 8.45825 42.0857 7.29828L42.2275 6.95029H49.3162L49.5611 6.39608C49.8317 5.79032 50.0637 5.14589 50.2184 4.5659C50.2828 4.3468 50.4504 3.85703 50.605 3.47037C50.7597 3.08372 50.9144 2.61973 50.953 2.43929C50.9917 2.25885 51.0819 2.03974 51.1464 1.96241C51.2237 1.87219 51.2495 1.70464 51.1979 1.60153C51.1335 1.43398 49.8833 1.4082 40.6808 1.4082H30.2411L30.0349 1.88508ZM53.5823 1.5242C53.4019 1.6402 53.0925 2.34907 52.9636 2.95483C52.925 3.13527 52.8348 3.34149 52.7703 3.43171C52.693 3.52193 52.5899 3.7797 52.5383 4.01169C52.4739 4.24369 52.3063 4.75923 52.1517 5.14589C51.6232 6.51208 51.4944 6.88584 51.3784 7.2725C51.3268 7.47872 51.1464 7.98137 50.9917 8.36803C50.4633 9.73422 50.3344 10.108 50.2184 10.4946C50.1668 10.7009 49.9864 11.2035 49.8317 11.5902C49.6771 11.9768 49.5095 12.4408 49.4451 12.6213C49.3806 12.8017 49.2131 13.2657 49.0584 13.6523C48.9037 14.039 48.7362 14.5288 48.6718 14.7479C48.6073 14.9541 48.4398 15.4567 48.2851 15.8434C47.7567 17.2096 47.6278 17.5834 47.5118 17.97C47.4602 18.1762 47.2798 18.6789 47.1251 19.0655C46.5451 20.5864 46.4549 20.8184 46.3905 21.1277C46.3518 21.3082 46.2745 21.5015 46.2229 21.5788C46.1714 21.6433 46.0554 21.9139 45.9909 22.1588C45.9136 22.4037 45.7332 22.9321 45.5914 23.3188C45.4367 23.7054 45.3465 24.105 45.3852 24.1823C45.4238 24.3112 46.2229 24.3499 48.7233 24.3499H52.0228L52.2161 24.0405C52.3321 23.873 52.4739 23.5765 52.5383 23.3703C52.5899 23.1641 52.7703 22.6743 52.925 22.2877C53.0796 21.901 53.2601 21.3984 53.3116 21.1922C53.3761 20.973 53.505 20.5735 53.621 20.29C53.7241 20.0064 53.9303 19.4522 54.085 19.0655C54.2396 18.6789 54.4974 17.9442 54.6649 17.4545C54.8325 16.9518 55.0903 16.2301 55.2449 15.8434C55.812 14.3612 55.9151 14.0906 56.0182 13.7168C56.0698 13.4977 56.2502 13.0079 56.4049 12.6213C56.9204 11.268 57.0622 10.8813 57.1782 10.4946C57.2427 10.2755 57.3715 9.87599 57.4875 9.59244C57.5906 9.30889 57.7969 8.75469 57.9515 8.36803C58.1062 7.98137 58.364 7.24672 58.5315 6.75696C58.6991 6.2543 58.9568 5.53254 59.1115 5.14589C59.6786 3.6637 59.7817 3.39304 59.8848 3.01927C59.9364 2.80017 60.0653 2.45218 60.1555 2.23307C60.4906 1.4082 60.4906 1.4082 56.9591 1.4082C55.2063 1.4082 53.6854 1.45976 53.5823 1.5242ZM65.2336 1.71753C65.1176 1.88508 64.9758 2.18152 64.9114 2.38773C64.8598 2.59395 64.6794 3.08372 64.5247 3.47037C64.37 3.85703 64.1123 4.57879 63.9447 5.08144C63.5967 6.09964 63.3776 6.69252 62.9781 7.7236C62.8234 8.11026 62.6559 8.60002 62.5914 8.81913C62.527 9.02535 62.3594 9.528 62.2048 9.91466C61.7794 11.0231 61.5732 11.5902 61.2381 12.5568C60.8772 13.5879 60.6581 14.1937 60.2715 15.199C60.1168 15.5856 59.9493 16.0754 59.8848 16.2945C59.8204 16.5007 59.6528 17.0034 59.4982 17.39C58.9697 18.7562 58.8408 19.13 58.7248 19.5166C58.6733 19.7229 58.4928 20.2255 58.3382 20.6122C57.7582 22.1201 57.668 22.365 57.6035 22.6743C57.5649 22.8548 57.4489 23.1126 57.3587 23.2543C57.2555 23.3961 57.1782 23.6925 57.1782 23.9245V24.3499L60.4132 24.3241L63.6483 24.2854L63.8287 23.7699C63.9447 23.4863 64.0736 23.1126 64.138 22.9321C64.2025 22.7517 64.37 22.2877 64.5247 21.901C64.6794 21.5144 64.8469 21.0117 64.9114 20.8055C64.9758 20.5864 65.1433 20.0966 65.298 19.71C65.4527 19.3233 65.7104 18.5887 65.878 18.0989C66.0455 17.5962 66.3162 16.8745 66.458 16.4878C66.6126 16.1012 66.7673 15.663 66.806 15.5212C66.9735 14.9412 66.9349 14.9412 71.1107 14.9412C73.2889 14.9412 75.1062 14.9928 75.1449 15.0572C75.1835 15.1088 75.0933 15.4696 74.9516 15.8563C74.8098 16.2429 74.552 16.9518 74.3845 17.4545C74.2169 17.9442 73.9591 18.6789 73.8045 19.0655C73.392 20.1611 73.1729 20.7282 72.8378 21.7077C72.6703 22.1975 72.4125 22.9321 72.2707 23.3188C72.1161 23.7054 72.0001 24.0921 72.0001 24.1823C72.0001 24.3112 72.7347 24.3499 75.3511 24.3499H78.7021L78.9083 23.8601C79.0243 23.6023 79.1661 23.2028 79.2177 22.9966C79.2821 22.7774 79.4497 22.2877 79.6043 21.901C80.1199 20.5477 80.2616 20.1611 80.3776 19.7744C80.4936 19.3878 80.6225 19.0398 81.1509 17.6478C81.3056 17.2611 81.4861 16.7327 81.5634 16.4878C81.6278 16.2429 81.7438 15.9723 81.7954 15.9078C81.8469 15.8305 81.9243 15.6372 81.9629 15.4567C82.0016 15.2763 82.1563 14.8123 82.298 14.4257C82.8136 13.111 82.9682 12.6857 83.0842 12.299C83.1358 12.0799 83.3162 11.5902 83.4709 11.2035C83.9993 9.83733 84.1282 9.46356 84.2442 9.0769C84.2958 8.85779 84.4762 8.36803 84.6309 7.98137C84.7855 7.59472 84.9531 7.13073 85.0175 6.95029C85.082 6.76985 85.2495 6.30586 85.4042 5.9192C85.5588 5.53254 85.7393 5.02989 85.7908 4.82367C85.9068 4.43702 86.0744 3.98592 86.577 2.69706C87.0926 1.36954 87.3375 1.47265 83.69 1.43398C81.9243 1.42109 80.4034 1.45976 80.2874 1.51131C80.0941 1.62731 79.8492 2.16863 79.6043 3.01927C79.4883 3.40593 79.3465 3.79259 78.831 5.14589C78.6763 5.53254 78.5088 6.02231 78.4444 6.24142C78.3799 6.44763 78.2124 6.95029 78.0577 7.33694C77.903 7.7236 77.7355 8.20048 77.671 8.38092C77.6195 8.56136 77.4777 8.89646 77.3617 9.11557L77.1426 9.528L73.1858 9.50222L69.229 9.46356L69.2419 9.0769C69.2548 8.85779 69.3579 8.45825 69.461 8.1747C70.041 6.7054 70.2214 6.20275 70.3246 5.85476C70.4277 5.4681 70.5565 5.133 71.0979 3.72815C71.2525 3.34149 71.433 2.81306 71.5103 2.56817C71.5747 2.32329 71.7036 2.03974 71.7681 1.96241C71.8454 1.87219 71.8712 1.70464 71.8196 1.60153C71.7552 1.43398 71.2912 1.4082 68.5975 1.4082H65.4269L65.2336 1.71753ZM91.7582 1.56287C91.6809 1.65309 91.5907 1.84641 91.552 1.98819C91.5134 2.12996 91.3587 2.56817 91.204 2.95483C90.6756 4.32102 90.5467 4.69479 90.4307 5.08144C90.3147 5.4681 90.173 5.85476 89.6574 7.20806C89.5027 7.59472 89.3352 8.08448 89.2708 8.30359C89.2063 8.5098 89.0388 9.01246 88.8841 9.39911C88.3041 10.92 88.2139 11.152 88.1494 11.4613C88.1108 11.6417 88.0206 11.8479 87.9561 11.9382C87.8788 12.0284 87.7757 12.2862 87.7241 12.5181C87.6597 12.7501 87.4921 13.2657 87.3375 13.6523C86.809 15.0185 86.6801 15.3923 86.5641 15.779C86.5126 15.9852 86.3322 16.4878 86.1775 16.8745C85.6491 18.2407 85.5202 18.6144 85.4042 19.0011C85.3526 19.2073 85.1722 19.71 85.0175 20.0966C84.386 21.7206 83.5998 24.0147 83.5998 24.2081C83.5998 24.3112 86.8477 24.3499 94.2715 24.3499C104.66 24.3499 104.956 24.337 105.175 24.105C105.304 23.9632 105.446 23.6668 105.51 23.4219C105.575 23.1899 105.742 22.6743 105.897 22.2877C106.438 20.8957 106.554 20.5477 106.657 20.1611C106.722 19.942 106.838 19.6197 106.928 19.4264C107.302 18.6402 107.624 18.6789 99.8523 18.6789C95.599 18.6789 92.7378 18.6273 92.6862 18.5629C92.6476 18.4984 92.712 18.1891 92.828 17.8798C92.9311 17.5705 93.0729 17.1451 93.1373 16.9389C93.2533 16.5523 93.3951 16.1656 93.9106 14.8123C94.0653 14.4257 94.2328 13.923 94.2973 13.7168C94.3617 13.4977 94.5293 13.0079 94.6839 12.6213C95.1995 11.268 95.3413 10.8813 95.4573 10.4946C95.5733 10.108 95.715 9.72133 96.2306 8.36803C96.3852 7.98137 96.5657 7.47872 96.6172 7.2725C96.7332 6.88584 96.8621 6.51208 97.3905 5.14589C97.5452 4.75923 97.7128 4.25658 97.7772 4.05036C97.8417 3.83125 98.0092 3.34149 98.1768 2.95483C98.3314 2.56817 98.4603 2.06552 98.4732 1.8593L98.4861 1.47265L95.1866 1.43398C92.6347 1.4082 91.8485 1.44687 91.7582 1.56287Z" fill="#5A5D5D"/>
</svg>
