<svg width="33" height="32" viewBox="0 0 33 32" fill="none" xmlns="http://www.w3.org/2000/svg">
<path d="M16.334 0C25.1705 2.06162e-05 32.334 7.16348 32.334 16C32.334 24.8365 25.1705 32 16.334 32C7.49746 32 0.334005 24.8365 0.333984 16C0.333984 7.16346 7.49745 0 16.334 0ZM19.9961 9.70605C19.4253 9.54787 18.5519 9.5702 18.0371 9.75098C16.6382 10.2594 15.7538 11.57 15.8545 13.0049L15.8887 13.5586L15.3291 13.4912C13.2922 13.2313 11.5128 12.3492 10.002 10.8691L9.2627 10.1348L9.07227 10.6777C8.66956 11.8865 8.92742 13.1629 9.7666 14.0215C10.2143 14.496 10.113 14.5637 9.34082 14.2812C9.07308 14.1912 8.83878 14.1239 8.81543 14.1572C8.73709 14.2363 9.00513 15.2651 9.21777 15.6719C9.50878 16.2367 10.102 16.7905 10.751 17.1182L11.2998 17.3779L10.6504 17.3887C10.0239 17.3887 10.0012 17.4005 10.0684 17.6377C10.2922 18.372 11.1765 19.1512 12.1611 19.4902L12.8555 19.7275L12.251 20.0889C11.3557 20.6086 10.3039 20.9031 9.25195 20.9258C8.74882 20.9371 8.3348 20.9817 8.33398 21.0156C8.33398 21.1286 9.69953 21.7612 10.4941 22.0098C12.8779 22.7441 15.7096 22.428 17.8359 21.1738C19.3467 20.2812 20.8575 18.5073 21.5625 16.79C21.943 15.8748 22.3232 14.2026 22.3232 13.4004C22.3232 12.8807 22.3569 12.8126 22.9834 12.1914C23.3527 11.8298 23.7004 11.4343 23.7676 11.3213C23.8793 11.1069 23.8674 11.1068 23.2969 11.2988C22.3458 11.6377 22.2116 11.5924 22.6816 11.084C23.0286 10.7224 23.4424 10.0671 23.4424 9.875C23.4416 9.84163 23.2747 9.8986 23.085 10C22.8835 10.113 22.4354 10.2821 22.0996 10.3838L21.4951 10.5762L20.9473 10.2031C20.6453 9.9999 20.2201 9.77403 19.9961 9.70605Z" fill="white"/>
</svg>
