<svg width="32" height="32" viewBox="0 0 32 32" fill="none" xmlns="http://www.w3.org/2000/svg">
<g clip-path="url(#clip0_5171_3749)">
<path d="M31.9999 16C31.9999 7.16248 24.8374 0 16 0C7.16248 0 0 7.16248 0 16C0 23.9874 5.84999 30.6062 13.5 31.8062V20.625H9.43748V16H13.5V12.475C13.5 8.46561 15.8875 6.24999 19.5437 6.24999C21.2937 6.24999 23.1249 6.56248 23.1249 6.56248V10.5H21.1062C19.1187 10.5 18.5 11.7343 18.5 13V16H22.9374L22.2281 20.625H18.5V31.8062C26.1499 30.6062 31.9999 23.9874 31.9999 16Z" fill="white"/>
</g>
<defs>
<clipPath id="clip0_5171_3749">
<rect width="31.9999" height="31.9999" fill="white"/>
</clipPath>
</defs>
</svg>
