<svg width="32" height="32" viewBox="0 0 32 32" fill="none" xmlns="http://www.w3.org/2000/svg">
<path d="M16 0C24.8366 0 32 7.16344 32 16C32 24.8366 24.8366 32 16 32C7.16344 32 0 24.8366 0 16C2.57703e-07 7.16344 7.16344 2.5772e-07 16 0ZM15.999 7.4668C13.6833 7.4668 13.3922 7.47715 12.4824 7.51855C11.574 7.56016 10.9537 7.70401 10.4111 7.91504C9.84996 8.13297 9.37367 8.42404 8.89941 8.89844C8.42474 9.37275 8.13273 9.84908 7.91406 10.4102C7.70253 10.9529 7.55846 11.5734 7.51758 12.4814C7.47687 13.3915 7.4668 13.6827 7.4668 16C7.4668 18.3173 7.47732 18.6075 7.51855 19.5176C7.56033 20.426 7.70419 21.0463 7.91504 21.5889C8.13314 22.15 8.42409 22.6264 8.89844 23.1006C9.37258 23.5753 9.84926 23.868 10.4102 24.0859C10.953 24.2969 11.5733 24.4408 12.4814 24.4824C13.3917 24.5238 13.6826 24.5332 16 24.5332C18.3174 24.5332 18.6074 24.5238 19.5176 24.4824C20.426 24.4408 21.0469 24.2969 21.5898 24.0859C22.1509 23.868 22.6264 23.5753 23.1006 23.1006C23.5752 22.6263 23.8663 22.1499 24.085 21.5889C24.2947 21.0461 24.4388 20.4256 24.4814 19.5176C24.5223 18.6077 24.5332 18.3172 24.5332 16C24.5332 13.6825 24.5223 13.3917 24.4814 12.4814C24.4388 11.573 24.2947 10.9527 24.085 10.4102C23.8663 9.84903 23.5752 9.37267 23.1006 8.89844C22.6259 8.42379 22.1506 8.13281 21.5889 7.91504C21.045 7.70409 20.4248 7.56016 19.5166 7.51855C18.6065 7.47714 18.3165 7.4668 15.999 7.4668Z" fill="white"/>
<path d="M15.2354 9.00439C15.4625 9.00404 15.7163 9.00439 16.001 9.00439C18.2785 9.0044 18.549 9.01236 19.4482 9.05322C20.2802 9.09127 20.7324 9.23037 21.0332 9.34717C21.4314 9.50184 21.7152 9.68717 22.0137 9.98584C22.3123 10.2845 22.4973 10.5691 22.6523 10.9673C22.7691 11.2677 22.9084 11.7194 22.9463 12.5513C22.9872 13.4507 22.9961 13.7213 22.9961 15.9985C22.9961 18.2756 22.9872 18.5463 22.9463 19.4458C22.9082 20.2776 22.7691 20.7294 22.6523 21.0298C22.4977 21.4278 22.3122 21.7109 22.0137 22.0093C21.715 22.3079 21.4316 22.4933 21.0332 22.6479C20.7328 22.7653 20.2803 22.9038 19.4482 22.9419C18.5491 22.9828 18.2786 22.9917 16.001 22.9917C13.7227 22.9917 13.452 22.9828 12.5527 22.9419C11.7208 22.9035 11.2688 22.7647 10.9678 22.6479C10.5695 22.4933 10.285 22.3079 9.98633 22.0093C9.68776 21.7107 9.50265 21.4271 9.34766 21.0288C9.23086 20.7284 9.09159 20.2768 9.05371 19.4448C9.01282 18.5453 9.00488 18.2749 9.00488 15.9966C9.00488 13.7181 9.01284 13.4486 9.05371 12.5493C9.09176 11.7173 9.23086 11.2652 9.34766 10.9644C9.50231 10.5662 9.6877 10.2815 9.98633 9.98291C10.2849 9.68432 10.5696 9.49924 10.9678 9.34424C11.2686 9.22692 11.7209 9.08851 12.5527 9.05029C13.3396 9.01475 13.6452 9.00422 15.2354 9.00244V9.00439ZM16 11.6177C13.5801 11.618 11.6182 13.5805 11.6182 16.0005C11.6183 18.4205 13.581 20.3813 16.001 20.3813C18.4208 20.3811 20.3817 18.4203 20.3818 16.0005C20.3818 13.5804 18.4201 11.6177 16 11.6177ZM20.4512 10.4272C19.935 10.4795 19.5314 10.9147 19.5312 11.4448C19.5312 12.0102 19.9903 12.4692 20.5557 12.4692C21.121 12.4692 21.5801 12.0101 21.5801 11.4448C21.5799 10.8797 21.1209 10.4214 20.5557 10.4214L20.4512 10.4272Z" fill="white"/>
<path d="M16.0007 13.1558C17.5716 13.1558 18.8452 14.4292 18.8452 16.0002C18.8452 17.5711 17.5716 18.8447 16.0007 18.8447C14.4297 18.8447 13.1562 17.5711 13.1562 16.0002C13.1562 14.4292 14.4297 13.1558 16.0007 13.1558V13.1558Z" fill="white"/>
</svg>
